<?xml version="1.0" encoding="UTF-8" standalone="no"?>
<!-- Created with Inkscape (http://www.inkscape.org/) -->

<svg
   xmlns:dc="http://purl.org/dc/elements/1.1/"
   xmlns:cc="http://creativecommons.org/ns#"
   xmlns:rdf="http://www.w3.org/1999/02/22-rdf-syntax-ns#"
   xmlns:svg="http://www.w3.org/2000/svg"
   xmlns="http://www.w3.org/2000/svg"
   xmlns:sodipodi="http://sodipodi.sourceforge.net/DTD/sodipodi-0.dtd"
   xmlns:inkscape="http://www.inkscape.org/namespaces/inkscape"
   width="22.203516in"
   height="15.13379in"
   viewBox="0 0 22.203516 15.13379"
   version="1.1"
   id="SVGRoot"
   inkscape:version="0.92.5 (2060ec1f9f, 2020-04-08)"
   sodipodi:docname="drawing.svg">
  <defs
     id="defs1856" />
  <sodipodi:namedview
     id="base"
     pagecolor="#ffffff"
     bordercolor="#666666"
     borderopacity="1.0"
     inkscape:pageopacity="0.0"
     inkscape:pageshadow="2"
     inkscape:zoom="0.24748737"
     inkscape:cx="1134.6864"
     inkscape:cy="727.64306"
     inkscape:document-units="in"
     inkscape:current-layer="layer1"
     showgrid="false"
     inkscape:window-width="1294"
     inkscape:window-height="711"
     inkscape:window-x="72"
     inkscape:window-y="27"
     inkscape:window-maximized="1" />
  <metadata
     id="metadata1859">
    <rdf:RDF>
      <cc:Work
         rdf:about="">
        <dc:format>image/svg+xml</dc:format>
        <dc:type
           rdf:resource="http://purl.org/dc/dcmitype/StillImage" />
        <dc:title></dc:title>
      </cc:Work>
    </rdf:RDF>
  </metadata>
  <g
     inkscape:label="Layer 1"
     inkscape:groupmode="layer"
     id="layer1"
     transform="translate(7.6589362,4.1672701)">
    <path
       style="opacity:1;fill:#8ecae6;fill-opacity:1;fill-rule:nonzero;stroke:none;stroke-width:0.04952758;stroke-linecap:round;stroke-linejoin:miter;stroke-miterlimit:4;stroke-dasharray:none;stroke-dashoffset:0;stroke-opacity:1;paint-order:normal"
       d="M -0.90961871,2.3905938 C 1.4517089,3.4381199 3.8130375,4.4856459 6.1743656,5.533172 6.0220219,3.6848647 5.8696781,1.8365574 5.7173344,-0.01175045 4.0356938,-0.75003171 2.354053,-1.4883124 0.67241215,-2.2265937 0.14506861,-0.6875317 -0.38227517,0.8515312 -0.90961871,2.3905938 Z"
       id="rect2412"
       inkscape:connector-curvature="0" />
    <path
       style="opacity:0.54572586;fill:#7f62d0;fill-opacity:1;fill-rule:nonzero;stroke:none;stroke-width:0.04952758;stroke-linecap:round;stroke-linejoin:miter;stroke-miterlimit:4;stroke-dasharray:none;stroke-dashoffset:0;stroke-opacity:1;paint-order:normal"
       d="M -4.2876932,6.4489428 C -3.3651671,7.9548022 -2.4426411,9.4606626 -1.5201151,10.96652 0.822984,9.5309756 3.1660829,8.0954272 5.5091818,6.6598804 5.2162131,5.2965991 4.9232443,3.9333179 4.6302756,2.5700366 1.6576194,3.8630053 -1.3150368,5.1559741 -4.2876932,6.4489428 Z"
       id="rect2414"
       inkscape:connector-curvature="0" />
    <path
       style="opacity:0.47760279;fill:#c24288;fill-opacity:1;fill-rule:nonzero;stroke:none;stroke-width:0.04952758;stroke-linecap:round;stroke-linejoin:miter;stroke-miterlimit:4;stroke-dasharray:none;stroke-dashoffset:0;stroke-opacity:1;paint-order:normal"
       d="M 6.1969233,4.2456852 C 6.358001,4.8752592 6.479248,5.5204341 6.6294032,6.1552008 6.7584923,6.6874982 6.9639954,7.1970427 7.154359,7.7095422 7.4361137,8.4386954 7.7148084,9.1690291 7.9918451,9.8999821 8.0594295,9.9057576 8.1172269,9.8544848 8.1824729,9.8402093 10.303175,9.0254982 12.423877,8.210787 14.54458,7.3960759 13.849918,5.4377425 13.155257,3.4794092 12.460595,1.5210759 10.372704,2.429279 8.2848139,3.3374821 6.1969233,4.2456852 Z"
       id="rect2416"
       inkscape:connector-curvature="0" />
    <path
       style="opacity:0.71566545;fill:#52c122;fill-opacity:1;fill-rule:nonzero;stroke:none;stroke-width:0.04952758;stroke-linecap:round;stroke-linejoin:miter;stroke-miterlimit:4;stroke-dasharray:none;stroke-dashoffset:0;stroke-opacity:1;paint-order:normal"
       d="M 3.1781602,3.6878758 C 4.2308946,3.6748549 5.283629,3.6618341 6.3363633,3.6488132 6.9066758,2.1325372 7.4769884,0.61626105 8.0473009,-0.90001518 6.3506863,-1.1975411 4.6540717,-1.495067 2.9574571,-1.792593 3.0310251,0.03422975 3.1045925,1.8610528 3.1781602,3.6878758 Z"
       id="rect2418"
       inkscape:connector-curvature="0" />
    <path
       style="opacity:0.59866399;fill:#317299;fill-opacity:1;fill-rule:nonzero;stroke:none;stroke-width:0.04952758;stroke-linecap:round;stroke-linejoin:miter;stroke-miterlimit:4;stroke-dasharray:none;stroke-dashoffset:0;stroke-opacity:1;paint-order:normal"
       d="m 1.2136077,8.6839617 c 2.9016391,0.3851042 5.8032798,0.7702035 8.7049159,1.1553003 0.0043,-1.9276491 0.0086,-3.855297 0.0129,-5.7829452 C 7.4002306,3.6461687 4.8690378,3.2360206 2.3378452,2.825874 1.9630994,4.7785695 1.588354,6.731266 1.2136077,8.6839617 Z"
       id="rect2420"
       inkscape:connector-curvature="0" />
    <path
       style="opacity:1;fill:#8ecae6;fill-opacity:1;fill-rule:nonzero;stroke:none;stroke-width:0.04952758;stroke-linecap:round;stroke-linejoin:miter;stroke-miterlimit:4;stroke-dasharray:none;stroke-dashoffset:0;stroke-opacity:1;paint-order:normal"
       d="M -6.7860159,0.69471721 C -4.2428942,1.1457892 -1.6997713,1.5968615 0.8433502,2.0479332 0.39002808,0.14789699 -0.06329421,-1.7521388 -0.51661622,-3.6521742 -2.4634855,-3.8238726 -4.4103563,-3.9955718 -6.3572271,-4.1672701 c -0.1429284,1.6206624 -0.2858594,3.2413246 -0.4287888,4.86198731 z"
       id="rect2412-3"
       inkscape:connector-curvature="0" />
    <path
       style="opacity:0.54572586;fill:#7f62d0;fill-opacity:1;fill-rule:nonzero;stroke:none;stroke-width:0.04952758;stroke-linecap:round;stroke-linejoin:miter;stroke-miterlimit:4;stroke-dasharray:none;stroke-dashoffset:0;stroke-opacity:1;paint-order:normal"
       d="M -5.3337571,7.6417269 C -2.6657225,6.9834309 0.00231266,6.3251359 2.6703469,5.6668406 2.8771136,4.2056241 3.0838801,2.7444076 3.2906464,1.2831911 -0.00726604,1.687854 -3.3051798,2.0925168 -6.603093,2.4971798 c 0.4231123,1.7148489 0.8462244,3.429698 1.2693359,5.1445471 z"
       id="rect2414-6"
       inkscape:connector-curvature="0" />
    <path
       style="opacity:0.82741891;fill:#dbb91f;fill-opacity:1;fill-rule:nonzero;stroke:none;stroke-width:0.04952758;stroke-linecap:round;stroke-linejoin:miter;stroke-miterlimit:4;stroke-dasharray:none;stroke-dashoffset:0;stroke-opacity:1;paint-order:normal"
       d="M 0.50546668,2.8969183 C 2.7919251,3.3689235 5.0783835,3.8409287 7.3648418,4.3129339 7.7834616,2.3253037 8.2020814,0.33767373 8.6207012,-1.6499567 6.3433575,-2.1896702 4.0660137,-2.7293838 1.7886698,-3.2690973 1.3609355,-1.2137588 0.93320112,0.84158006 0.50546668,2.8969183 Z"
       id="rect2416-7"
       inkscape:connector-curvature="0" />
    <path
       style="opacity:0.66569447;fill:#58c428;fill-opacity:1;fill-rule:nonzero;stroke:none;stroke-width:0.04952758;stroke-linecap:round;stroke-linejoin:miter;stroke-miterlimit:4;stroke-dasharray:none;stroke-dashoffset:0;stroke-opacity:1;paint-order:normal"
       d="M -1.9585585,5.5882664 C -0.7847304,7.1214694 0.3890979,8.6546725 1.5629258,10.187876 2.3676132,9.581756 3.1723009,8.9756362 3.9769883,8.3695162 3.7107123,6.8089695 3.4444363,5.2484227 3.1781602,3.6878758 1.4659206,4.3213394 -0.2463189,4.9548029 -1.9585585,5.5882664 Z"
       id="rect2418-5"
       inkscape:connector-curvature="0" />
    <path
       style="opacity:0.59866399;fill:#317299;fill-opacity:1;fill-rule:nonzero;stroke:none;stroke-width:0.04952758;stroke-linecap:round;stroke-linejoin:miter;stroke-miterlimit:4;stroke-dasharray:none;stroke-dashoffset:0;stroke-opacity:1;paint-order:normal"
       d="M 2.5698428,0.28271582 C 1.290747,0.53374639 0.01844548,0.81779597 -1.2552991,1.0944026 c -0.5707949,0.1279779 -1.1456303,0.2380713 -1.715131,0.3712329 -0.040588,0.01158 -0.1002671,0.018803 -0.078868,0.074893 0.011644,0.1018402 0.044041,0.2010138 0.053053,0.3034385 0.3417031,1.8332179 0.6840007,3.6663247 1.0270252,5.4992958 C 0.87257686,6.6420908 3.714374,5.9409189 6.5561709,5.239747 5.7911969,3.5581064 5.026223,1.8764658 4.261249,0.19482492 3.6974469,0.22412202 3.1336449,0.25341892 2.5698428,0.28271582 Z"
       id="rect2420-3"
       inkscape:connector-curvature="0" />
    <path
       inkscape:connector-curvature="0"
       id="path2462"
       d="M -6.49451,3.7245973 C -4.1331815,4.7721234 -1.7718537,5.8196494 0.5894744,6.8671755 0.4371307,5.0188682 0.2847869,3.1705609 0.1324432,1.3222537 -1.5491974,0.5839724 -3.2308377,-0.1543092 -4.9124786,-0.89259049 -5.4398224,0.6464723 -5.9671663,2.1855348 -6.49451,3.7245973 Z"
       style="opacity:0.58919193;fill:#af3999;fill-opacity:1;fill-rule:nonzero;stroke:none;stroke-width:0.04952758;stroke-linecap:round;stroke-linejoin:miter;stroke-miterlimit:4;stroke-dasharray:none;stroke-dashoffset:0;stroke-opacity:1;paint-order:normal" />
    <path
       inkscape:connector-curvature="0"
       id="path2464"
       d="M 0.34168968,6.1550517 C 2.7030173,7.2025778 5.064346,8.2501038 7.4256741,9.2976299 7.2733304,7.4493226 7.1209866,5.6010153 6.9686429,3.7527083 5.2870023,3.0144272 3.605361,2.2761459 1.9237206,1.5378642 1.3963771,3.0769273 0.86903348,4.6159891 0.34168968,6.1550517 Z"
       style="opacity:1;fill:#8ecae6;fill-opacity:1;fill-rule:nonzero;stroke:none;stroke-width:0.04952758;stroke-linecap:round;stroke-linejoin:miter;stroke-miterlimit:4;stroke-dasharray:none;stroke-dashoffset:0;stroke-opacity:1;paint-order:normal" />
    <path
       inkscape:connector-curvature="0"
       id="path2466"
       d="m 3.66367,2.8578557 c 2.2864588,0.4720052 4.5729167,0.9440104 6.859375,1.4160156 0.41862,-1.9876302 0.83724,-3.9752602 1.255859,-5.9628906 C 9.5015607,-2.2287328 7.2242169,-2.7684464 4.9468737,-3.3081599 4.5191391,-1.2528216 4.0914045,0.80251752 3.66367,2.8578557 Z"
       style="opacity:0.61124423;fill:#d9b51e;fill-opacity:1;fill-rule:nonzero;stroke:none;stroke-width:0.04952758;stroke-linecap:round;stroke-linejoin:miter;stroke-miterlimit:4;stroke-dasharray:none;stroke-dashoffset:0;stroke-opacity:1;paint-order:normal" />
    <path
       inkscape:connector-curvature="0"
       id="path2468"
       d="m 0.1324432,1.3222537 c 1.0527344,-0.013021 2.1054688,-0.026042 3.1582032,-0.039063 0.570312,-1.516276 1.140625,-3.032552 1.710937,-4.5488281 -1.696614,-0.297526 -3.3932287,-0.5950521 -5.0898433,-0.8925781 0.073568,1.8268229 0.1471354,3.6536458 0.2207031,5.4804688 z"
       style="opacity:0.71566545;fill:#52c122;fill-opacity:1;fill-rule:nonzero;stroke:none;stroke-width:0.04952758;stroke-linecap:round;stroke-linejoin:miter;stroke-miterlimit:4;stroke-dasharray:none;stroke-dashoffset:0;stroke-opacity:1;paint-order:normal" />
  </g>
</svg>
