<?xml version="1.0" encoding="UTF-8" standalone="no"?>
<!-- Created with Inkscape (http://www.inkscape.org/) -->

<svg
   xmlns:dc="http://purl.org/dc/elements/1.1/"
   xmlns:cc="http://creativecommons.org/ns#"
   xmlns:rdf="http://www.w3.org/1999/02/22-rdf-syntax-ns#"
   xmlns:svg="http://www.w3.org/2000/svg"
   xmlns="http://www.w3.org/2000/svg"
   xmlns:xlink="http://www.w3.org/1999/xlink"
   xmlns:sodipodi="http://sodipodi.sourceforge.net/DTD/sodipodi-0.dtd"
   xmlns:inkscape="http://www.inkscape.org/namespaces/inkscape"
   width="187.49875mm"
   height="49.66346mm"
   viewBox="0 0 187.49875 49.66346"
   version="1.1"
   id="svg2219"
   inkscape:version="0.92.5 (2060ec1f9f, 2020-04-08)"
   sodipodi:docname="drawingOnlyPulse.svg">
  <defs
     id="defs2213">
    <marker
       inkscape:stockid="Arrow2Mend"
       orient="auto"
       refY="0"
       refX="0"
       id="Arrow2Mend-3-5"
       style="overflow:visible"
       inkscape:isstock="true">
      <path
         inkscape:connector-curvature="0"
         id="path1740-6-3"
         style="fill:#023047;fill-opacity:1;fill-rule:evenodd;stroke:#023047;stroke-width:0.625;stroke-linejoin:round;stroke-opacity:1"
         d="M 8.7185878,4.0337352 -2.2072895,0.01601326 8.7185884,-4.0017078 c -1.7454984,2.3720609 -1.7354408,5.6174519 -6e-7,8.035443 z"
         transform="scale(-0.6)" />
    </marker>
    <linearGradient
       gradientTransform="matrix(1.5,0,0,1.5,58.208316,-44.145833)"
       inkscape:collect="always"
       xlink:href="#linearGradient4341"
       id="linearGradient4374"
       x1="119.30818"
       y1="98.875"
       x2="155.85847"
       y2="98.875"
       gradientUnits="userSpaceOnUse" />
    <linearGradient
       inkscape:collect="always"
       id="linearGradient4341">
      <stop
         style="stop-color:#8ecae6;stop-opacity:1;"
         offset="0"
         id="stop4337" />
      <stop
         style="stop-color:#8ecae6;stop-opacity:0;"
         offset="1"
         id="stop4339" />
    </linearGradient>
    <marker
       inkscape:stockid="Arrow1Mstart"
       orient="auto"
       refY="0"
       refX="0"
       id="Arrow1Mstart"
       style="overflow:visible"
       inkscape:isstock="true">
      <path
         inkscape:connector-curvature="0"
         id="path1468"
         d="M 0,0 5,-5 -12.5,0 5,5 Z"
         style="fill:#000000;fill-opacity:1;fill-rule:evenodd;stroke:#000000;stroke-width:1.00000003pt;stroke-opacity:1"
         transform="matrix(0.4,0,0,0.4,4,0)" />
    </marker>
    <marker
       inkscape:stockid="Arrow1Mend"
       orient="auto"
       refY="0"
       refX="0"
       id="Arrow1Mend"
       style="overflow:visible"
       inkscape:isstock="true">
      <path
         inkscape:connector-curvature="0"
         id="path1471"
         d="M 0,0 5,-5 -12.5,0 5,5 Z"
         style="fill:#000000;fill-opacity:1;fill-rule:evenodd;stroke:#000000;stroke-width:1.00000003pt;stroke-opacity:1"
         transform="matrix(-0.4,0,0,-0.4,-4,0)" />
    </marker>
    <marker
       inkscape:stockid="Arrow1Mstart"
       orient="auto"
       refY="0"
       refX="0"
       id="Arrow1Mstart-1"
       style="overflow:visible"
       inkscape:isstock="true">
      <path
         inkscape:connector-curvature="0"
         id="path1468-03"
         d="M 0,0 5,-5 -12.5,0 5,5 Z"
         style="fill:#000000;fill-opacity:1;fill-rule:evenodd;stroke:#000000;stroke-width:1.00000003pt;stroke-opacity:1"
         transform="matrix(0.4,0,0,0.4,4,0)" />
    </marker>
    <marker
       inkscape:stockid="Arrow1Mend"
       orient="auto"
       refY="0"
       refX="0"
       id="Arrow1Mend-4"
       style="overflow:visible"
       inkscape:isstock="true">
      <path
         inkscape:connector-curvature="0"
         id="path1471-0"
         d="M 0,0 5,-5 -12.5,0 5,5 Z"
         style="fill:#000000;fill-opacity:1;fill-rule:evenodd;stroke:#000000;stroke-width:1.00000003pt;stroke-opacity:1"
         transform="matrix(-0.4,0,0,-0.4,-4,0)" />
    </marker>
    <marker
       inkscape:stockid="Arrow2Mend"
       orient="auto"
       refY="0"
       refX="0"
       id="Arrow2Mend-3"
       style="overflow:visible"
       inkscape:isstock="true">
      <path
         inkscape:connector-curvature="0"
         id="path1740-6"
         style="fill:#023047;fill-opacity:1;fill-rule:evenodd;stroke:#023047;stroke-width:0.625;stroke-linejoin:round;stroke-opacity:1"
         d="M 8.7185878,4.0337352 -2.2072895,0.01601326 8.7185884,-4.0017078 c -1.7454984,2.3720609 -1.7354408,5.6174519 -6e-7,8.035443 z"
         transform="scale(-0.6)" />
    </marker>
    <marker
       inkscape:stockid="Arrow2Mend"
       orient="auto"
       refY="0"
       refX="0"
       id="Arrow2Mend"
       style="overflow:visible"
       inkscape:isstock="true">
      <path
         id="path1740"
         style="fill:#023047;fill-opacity:1;fill-rule:evenodd;stroke:#023047;stroke-width:0.625;stroke-linejoin:round;stroke-opacity:1"
         d="M 8.7185878,4.0337352 -2.2072895,0.01601326 8.7185884,-4.0017078 c -1.7454984,2.3720609 -1.7354408,5.6174519 -6e-7,8.035443 z"
         transform="scale(-0.6)"
         inkscape:connector-curvature="0" />
    </marker>
  </defs>
  <sodipodi:namedview
     id="base"
     pagecolor="#ffffff"
     bordercolor="#666666"
     borderopacity="1.0"
     inkscape:pageopacity="0.0"
     inkscape:pageshadow="2"
     inkscape:zoom="0.35"
     inkscape:cx="280.4436"
     inkscape:cy="-14.719241"
     inkscape:document-units="mm"
     inkscape:current-layer="layer1"
     showgrid="false"
     fit-margin-top="0"
     fit-margin-left="0"
     fit-margin-right="0"
     fit-margin-bottom="0"
     inkscape:window-width="1294"
     inkscape:window-height="711"
     inkscape:window-x="72"
     inkscape:window-y="27"
     inkscape:window-maximized="1" />
  <metadata
     id="metadata2216">
    <rdf:RDF>
      <cc:Work
         rdf:about="">
        <dc:format>image/svg+xml</dc:format>
        <dc:type
           rdf:resource="http://purl.org/dc/dcmitype/StillImage" />
        <dc:title></dc:title>
      </cc:Work>
    </rdf:RDF>
  </metadata>
  <g
     inkscape:label="Layer 1"
     inkscape:groupmode="layer"
     id="layer1"
     transform="translate(-9.3320363,-95.275409)">
    <g
       id="surface11"
       transform="matrix(0.17638889,0,0,0.17638889,134.40135,107.51486)">
      <path
         id="path5434"
         transform="translate(-66,-5)"
         d="M 315.68359,141.67969 H 205.64844 l 1.26562,3.23047 7.39844,17.72656 7.26562,15.67187 0.10547,0.21094 0.10547,0.21484 0.21094,0.42188 0.42578,0.84375 0.84375,1.65625 1.69531,3.22266 3.38672,6.03906 0.11719,0.19531 0.11328,0.19531 0.23047,0.38282 0.45703,0.76562 0.92188,1.49609 1.83593,2.85938 0.11328,0.17578 0.11719,0.17188 0.22656,0.33984 0.46094,0.67578 0.91797,1.32031 1.83594,2.49219 0.10937,0.14063 0.10547,0.14062 0.64453,0.82031 0.85547,1.0586 1.71485,1.98828 0.10937,0.11719 0.10547,0.12109 0.21484,0.23437 0.42969,0.45704 0.85547,0.88671 1.71484,1.64454 0.10547,0.0977 0.31641,0.28125 0.41797,0.36328 0.84375,0.69922 0.10156,0.0859 0.10547,0.082 0.21094,0.16797 0.42187,0.32031 0.83984,0.61328 0.21094,0.14844 0.21094,0.14453 0.41797,0.28125 0.83984,0.52735 0.21094,0.125 0.21094,0.12109 0.41797,0.23828 0.84375,0.44141 0.45312,0.21875 0.45703,0.21093 0.11328,0.0469 0.11328,0.0508 0.23047,0.0977 0.45703,0.17968 0.11329,0.0469 0.11328,0.043 0.22656,0.082 0.45703,0.15625 0.11328,0.0391 0.11328,0.0352 0.23047,0.0703 0.45313,0.13281 0.11718,0.0312 0.11329,0.0312 0.22656,0.0586 0.11328,0.0273 0.11719,0.0273 0.22656,0.0508 0.22656,0.0469 0.23047,0.0469 0.45313,0.082 0.11718,0.0156 0.11328,0.0195 0.45313,0.0625 0.23047,0.0234 0.33984,0.0352 0.11719,0.008 0.11328,0.0117 0.22656,0.0156 0.11328,0.004 0.10938,0.008 0.31641,0.0117 h 0.10546 l 0.10938,0.004 h 0.42578 l 0.10547,-0.004 h 0.10547 l 0.10547,-0.004 0.10937,-0.004 0.21094,-0.008 0.10547,-0.008 0.10547,-0.004 0.10937,-0.008 0.31641,-0.0234 0.21484,-0.0234 0.10547,-0.008 0.10547,-0.0117 0.21484,-0.0273 0.10547,-0.0117 0.10547,-0.0156 0.21484,-0.0312 0.10547,-0.0156 0.10547,-0.0195 0.21485,-0.0352 0.21093,-0.0391 0.21485,-0.043 0.10547,-0.0195 0.3164,-0.0703 0.42578,-0.10156 0.10938,-0.0273 0.10547,-0.0273 0.21093,-0.0586 0.42579,-0.12109 0.85156,-0.27735 0.11719,-0.043 0.11328,-0.043 0.23047,-0.082 0.46093,-0.18359 0.92188,-0.39453 0.11719,-0.0547 0.11328,-0.0547 0.23047,-0.10937 0.46093,-0.22656 0.92578,-0.49219 0.11329,-0.0664 0.11718,-0.0664 0.23047,-0.13282 0.46094,-0.27734 0.92187,-0.58594 1.84375,-1.30859 0.11329,-0.0859 0.11328,-0.0898 0.22656,-0.17578 0.45312,-0.35938 0.90625,-0.75 1.8086,-1.62891 0.11328,-0.10546 0.33984,-0.32813 0.45313,-0.44141 0.90625,-0.91406 1.80859,-1.94531 0.10547,-0.11719 0.10547,-0.12109 0.21484,-0.23828 0.42188,-0.48438 0.84375,-0.98828 1.6875,-2.07422 3.3789,-4.5 0.11329,-0.16015 0.11718,-0.16016 0.22657,-0.32031 0.46093,-0.65235 0.91407,-1.32812 1.83203,-2.73828 3.66406,-5.79688 6.83984,-11.76562 6.70313,-12.33594 7.27734,-13.74609 z m 0,0"
         style="fill:#5c7fb3;fill-opacity:0.2;fill-rule:nonzero;stroke:#5c7fb3;stroke-width:1;stroke-linecap:square;stroke-linejoin:miter;stroke-miterlimit:3.23930693;stroke-opacity:0.2"
         inkscape:connector-curvature="0" />
      <path
         id="path5436"
         transform="translate(-66,-5)"
         d="M 73.199219,141.67969 H 205.64844 l -5.5625,-14.16406 -7.3125,-19.10938 -6.7461,-17.460938 -7.23047,-17.90625 -7.36718,-16.695312 -3.39844,-6.992188 -1.69922,-3.300781 -0.84766,-1.597656 -0.42578,-0.785156 -0.3164,-0.585938 -0.10938,-0.191406 -3.64062,-6.269531 -1.82032,-2.859375 -0.91015,-1.359375 -0.45703,-0.660156 -0.22657,-0.328126 -0.22656,-0.320312 -1.67969,-2.28125 -0.83984,-1.078125 -0.41797,-0.519531 -0.21094,-0.257813 -0.10156,-0.128906 -0.10547,-0.125 -1.67968,-1.929687 -0.83985,-0.894532 -0.41797,-0.429687 -0.3164,-0.316407 -0.10547,-0.101562 -1.71094,-1.585938 -0.85547,-0.71875 -0.42578,-0.339843 -0.21484,-0.164063 -0.10938,-0.08203 -0.10547,-0.08203 -0.85547,-0.613282 -0.42968,-0.289062 -0.21094,-0.140625 -0.10938,-0.07031 -0.10546,-0.06641 -0.85547,-0.511718 -0.42969,-0.238282 -0.21484,-0.113281 -0.10547,-0.05859 -0.10547,-0.05469 -0.91797,-0.433594 -0.45703,-0.195312 -0.23047,-0.09375 -0.11328,-0.04297 -0.11719,-0.04297 -0.45703,-0.164062 -0.23047,-0.07813 -0.11328,-0.03906 -0.11719,-0.03516 -0.45703,-0.132813 -0.23047,-0.0625 -0.11328,-0.02734 -0.11328,-0.03125 -0.46094,-0.101563 -0.22656,-0.04687 -0.11719,-0.01953 -0.11328,-0.02344 -0.23047,-0.03516 -0.11328,-0.01953 -0.11328,-0.01563 -0.23047,-0.03125 -0.11328,-0.01563 -0.11719,-0.01172 -0.22656,-0.02344 -0.11719,-0.0078 -0.11328,-0.01172 -0.11328,-0.0078 -0.11719,-0.0039 -0.11328,-0.0078 -0.11328,-0.0039 -0.11719,-0.0039 -0.22656,-0.0078 h -0.34375 l -0.11719,0.0039 h -0.11328 l -0.31641,0.01172 -0.42187,0.03125 -0.10938,0.0078 -0.21093,0.01953 -0.10547,0.01172 -0.10547,0.01562 -0.10547,0.01172 -0.10547,0.01563 -0.10547,0.01172 -0.10547,0.01563 -0.21093,0.03516 -0.42188,0.07813 -0.10547,0.02344 -0.10547,0.01953 -0.21484,0.05078 -0.10547,0.02344 -0.10547,0.02734 -0.21093,0.05078 -0.10547,0.03125 -0.10547,0.02734 -0.42188,0.125 -0.21093,0.06641 -0.21094,0.07031 -0.42578,0.152344 -0.21094,0.08203 -0.10547,0.03906 -0.10547,0.04297 -0.42187,0.179688 -0.31641,0.140625 -0.52734,0.253906 -0.21485,0.109375 -0.21093,0.109375 -0.90625,0.511719 -0.45313,0.277344 -0.22656,0.144531 -0.22656,0.148437 -0.90625,0.632813 -0.45313,0.339844 -0.22656,0.175781 -0.22656,0.179688 -0.90625,0.753906 -0.45313,0.398437 -0.22656,0.207031 -0.11328,0.101563 -0.11328,0.105469 -0.90625,0.875 -0.45313,0.457031 -0.22656,0.234375 -0.11328,0.121094 -0.11328,0.117187 -1.84766,2.082031 -0.92187,1.132813 -0.46094,0.585937 -0.23047,0.300782 -0.11719,0.148437 -0.11328,0.152344 -1.84766,2.558594 -0.92187,1.367187 -0.46484,0.703125 -0.23047,0.359375 -0.11328,0.179688 -0.11719,0.179687 -1.70313,2.773438 -0.85156,1.460937 -0.42578,0.746094 -0.21484,0.375 -0.21094,0.382812 -1.70313,3.144532 -0.85547,1.640625 -0.42578,0.835937 -0.21093,0.421875 -0.10547,0.214844 -0.10938,0.210937 -3.64844,7.695313 -1.82812,4.125 -0.91016,2.128906 -0.45703,1.078125 -0.23047,0.546875 -0.11328,0.269531 -0.11328,0.277344 -6.734375,17.210938 -6.863281,19.371094 -7.355469,22.144528 -3.390625,10.5 -1.699219,5.28125 -0.847656,2.64453 -0.421875,1.32422 -0.214844,0.66406 -0.105468,0.32813 z m 0,0"
         style="fill:#5c7fb3;fill-opacity:0.2;fill-rule:nonzero;stroke:#5c7fb3;stroke-width:1;stroke-linecap:square;stroke-linejoin:miter;stroke-miterlimit:3.23930693;stroke-opacity:0.2"
         inkscape:connector-curvature="0" />
      <path
         id="path5438"
         transform="translate(-66,-5)"
         d="m 315.68359,141.67969 h 103.11719 v -9.37891 l -0.12109,-0.1875 -0.11719,-0.18359 -0.11719,-0.1875 -0.12109,-0.1836 -0.23438,-0.37109 -0.12109,-0.18359 -0.11719,-0.1875 -0.47656,-0.73829 -0.23438,-0.36718 -0.12109,-0.1836 -0.11719,-0.1875 -0.94922,-1.47265 -0.47265,-0.73047 -0.23828,-0.36719 -0.1211,-0.18359 -0.11718,-0.1836 -1.89844,-2.90625 -0.94922,-1.4414 -0.47266,-0.71485 -0.23828,-0.35937 -0.11719,-0.17969 -0.12109,-0.17578 -6.79687,-9.83984 -7.28907,-9.44141 -3.35937,-3.84375 -1.67969,-1.785156 -0.83984,-0.855469 -0.41797,-0.417969 -0.21094,-0.207031 -0.10547,-0.105469 -0.10547,-0.101562 -1.71093,-1.613282 -0.85938,-0.765624 -0.42578,-0.375 -0.21484,-0.183594 L 387.08594,91 l -0.10938,-0.08984 -1.71094,-1.390625 -0.85937,-0.648437 -0.42578,-0.3125 -0.21485,-0.15625 -0.10546,-0.07422 -0.10938,-0.07813 -1.83594,-1.222656 -0.91406,-0.558594 -0.46094,-0.261719 -0.23047,-0.132812 -0.22656,-0.125 -0.91797,-0.484375 -0.46093,-0.226563 -0.22657,-0.109375 -0.11718,-0.05469 -0.11329,-0.05469 -0.91796,-0.40625 -0.45704,-0.191406 -0.23046,-0.08984 -0.11329,-0.04297 -0.11718,-0.04687 -0.84375,-0.304688 -0.42578,-0.140625 -0.21094,-0.06641 -0.10547,-0.03125 -0.10547,-0.03516 -0.42187,-0.121093 -0.21094,-0.05859 -0.10547,-0.03125 -0.10547,-0.02734 -0.42578,-0.105469 -0.21094,-0.05078 -0.21094,-0.04687 -0.42187,-0.08984 -0.21484,-0.04297 -0.21094,-0.03906 -0.42188,-0.07422 -0.42187,-0.0625 -0.42578,-0.05469 -0.42188,-0.04687 -0.21094,-0.01953 -0.10546,-0.01172 -0.52735,-0.03906 -0.11719,-0.0039 -0.11328,-0.0078 -0.5664,-0.01953 h -0.11328 l -0.11329,-0.0039 h -0.45312 l -0.11328,0.0039 h -0.11328 l -0.45313,0.01562 -0.11328,0.0078 -0.11328,0.0039 -0.56641,0.03906 -0.67968,0.07031 -0.22657,0.02734 -0.45312,0.0625 -0.11328,0.01953 -0.11328,0.01563 -0.22657,0.03906 -0.11718,0.01953 -0.11329,0.01953 -0.22656,0.04297 -0.22656,0.04687 -0.45313,0.09766 -0.45312,0.109375 -0.45313,0.117188 -0.22656,0.06641 -0.22656,0.0625 -0.92578,0.296875 -0.46094,0.160156 -0.23047,0.08594 -0.11328,0.04297 -0.11719,0.04297 -0.46093,0.183594 -0.23047,0.09766 -0.11719,0.04687 -0.11719,0.05078 -0.46094,0.203126 -0.23046,0.105468 -0.11329,0.05469 -0.11718,0.05469 -0.92578,0.460938 -0.46094,0.242187 -0.23047,0.128906 -0.11328,0.0625 -0.11719,0.06641 -0.92578,0.539062 -0.69141,0.433594 -0.11328,0.07422 -0.11719,0.07422 -1.70703,1.183594 -0.85156,0.640625 -0.42578,0.332031 -0.21094,0.167969 -0.10937,0.08594 -0.10547,0.08594 -1.70313,1.449219 -0.85547,0.777344 -0.42578,0.398437 -0.21093,0.203125 -0.10938,0.101563 -0.10547,0.101562 -1.82812,1.832032 -0.91016,0.972656 -0.45703,0.5 -0.23047,0.25 -0.22656,0.257812 -1.82813,2.113282 -0.91406,1.109374 -0.45703,0.562503 -0.33984,0.4336 -0.11719,0.14453 -3.36719,4.47656 -1.68359,2.39063 -0.84375,1.23046 -0.42188,0.625 -0.20703,0.3125 -0.10547,0.16016 -0.10547,0.15625 -6.87109,11.01563 -7.35938,13.01171 z m 0,0"
         style="fill:#5c7fb3;fill-opacity:0.2;fill-rule:nonzero;stroke:#5c7fb3;stroke-width:1;stroke-linecap:square;stroke-linejoin:miter;stroke-miterlimit:3.23930693;stroke-opacity:0.2"
         inkscape:connector-curvature="0" />
      <path
         id="path5440"
         transform="translate(-66,-5)"
         d="M 364.12109,141.67969 H 250.71484 l 5.86328,12.24218 6.8086,13.27344 7.3789,12.89453 0.22657,0.36719 0.22656,0.36328 0.45312,0.72266 0.90625,1.42187 1.8086,2.75391 3.62109,5.10937 0.21094,0.28125 0.21484,0.27735 0.42188,0.55078 0.84375,1.08203 1.6875,2.0625 0.21094,0.25 0.21093,0.24609 0.42188,0.48829 0.84765,0.95312 1.6875,1.80078 0.11329,0.11719 0.11718,0.11719 0.22657,0.23437 0.46093,0.45313 0.91407,0.88281 1.83203,1.63672 0.11328,0.0977 0.11719,0.0977 0.22656,0.1875 0.45703,0.375 0.91797,0.71484 1.83203,1.30469 0.10547,0.0703 0.10937,0.0703 0.21094,0.14062 0.42969,0.26953 0.85547,0.51172 0.21093,0.125 0.21485,0.11719 0.42578,0.23437 0.85547,0.4375 0.10937,0.0547 0.10547,0.0508 0.21485,0.10157 0.42578,0.19531 0.85547,0.36328 0.10546,0.043 0.10938,0.0391 0.21484,0.082 0.42578,0.16016 0.85547,0.28515 0.10547,0.0312 0.10156,0.0352 0.21094,0.0625 0.41797,0.11719 0.21094,0.0547 0.21094,0.0508 0.41796,0.10156 0.21094,0.0469 0.20703,0.043 0.21094,0.0391 0.21094,0.043 0.10156,0.0156 0.10547,0.0195 0.21094,0.0352 0.41797,0.0625 0.10546,0.0156 0.10547,0.0117 0.20703,0.0273 0.21094,0.0234 0.21094,0.0195 0.10156,0.0117 0.52735,0.0391 0.10156,0.004 0.10547,0.008 0.3164,0.0117 0.10157,0.004 0.21093,0.008 h 0.21094 l 0.10547,0.004 h 0.10156 l 0.10547,-0.004 h 0.21094 l 0.10547,-0.004 0.10156,-0.004 h 0.10547 l 0.11328,-0.008 0.11719,-0.004 0.11328,-0.004 0.67969,-0.0469 0.11328,-0.0117 0.23047,-0.0234 0.22656,-0.0234 0.22656,-0.0273 0.22656,-0.0312 0.22657,-0.0352 0.11328,-0.0156 0.11718,-0.0195 0.45313,-0.0781 0.22656,-0.043 0.45703,-0.0977 0.11328,-0.0234 0.33985,-0.082 0.45312,-0.11328 0.11719,-0.0312 0.33984,-0.0937 0.45313,-0.13672 0.11328,-0.0391 0.11328,-0.0352 0.23047,-0.0742 0.45313,-0.15625 0.91015,-0.34765 0.10547,-0.0391 0.10547,-0.0469 0.21094,-0.0859 0.42578,-0.18359 0.84765,-0.39453 0.10547,-0.0508 0.10938,-0.0508 0.21094,-0.10937 0.42578,-0.21485 0.84765,-0.46484 0.10547,-0.0586 0.10547,-0.0625 0.21094,-0.1211 0.42578,-0.2539 0.84766,-0.53125 1.69921,-1.15625 0.11329,-0.0859 0.11718,-0.082 0.22657,-0.17188 0.46093,-0.34375 0.92188,-0.72265 1.83984,-1.55078 0.22656,-0.20313 0.23047,-0.20703 0.46094,-0.41797 0.92188,-0.86719 1.83984,-1.83203 0.10547,-0.10937 0.10937,-0.11328 0.21485,-0.22266 0.42578,-0.45313 0.85937,-0.92968 1.71875,-1.94141 3.4375,-4.19531 6.73438,-9.28906 7.30859,-11.32422 6.82031,-11.31641 7.39063,-12.58984 z m 0,0"
         style="fill:#e19c23;fill-opacity:0.2;fill-rule:nonzero;stroke:#e19c23;stroke-width:1;stroke-linecap:square;stroke-linejoin:miter;stroke-miterlimit:3.23930693;stroke-opacity:0.2"
         inkscape:connector-curvature="0" />
      <path
         id="path5442"
         transform="translate(-66,-5)"
         d="m 364.12109,141.67969 h 54.67969 V 86.734375 l -0.12109,-0.0039 -0.23438,-0.0078 -0.12109,-0.0039 -0.11719,-0.0039 h -0.11719 l -0.12109,-0.0039 h -0.47266 l -0.12109,0.0039 h -0.11719 l -0.11719,0.0039 -0.12109,0.0039 -0.23437,0.0078 -0.1211,0.0078 -0.11719,0.0039 -0.12109,0.0078 -0.23437,0.01563 -0.1211,0.0078 -0.11719,0.0078 -0.23828,0.01953 -0.23437,0.02344 -0.23828,0.02734 -0.1211,0.01172 -0.11718,0.01563 -0.47266,0.0625 -0.23828,0.03516 -0.11719,0.01563 -0.12109,0.01953 -0.23828,0.03906 -0.11719,0.02344 -0.11719,0.01953 -0.23828,0.04687 -0.11719,0.02344 -0.12109,0.02344 -0.47266,0.101562 -0.23828,0.05469 -0.11719,0.03125 -0.12109,0.02734 -0.47266,0.121094 -0.23828,0.06641 -0.11719,0.03516 -0.12109,0.03125 -0.84766,0.261719 -0.42578,0.144531 -0.21093,0.07422 -0.10938,0.03906 -0.10547,0.03906 -0.84765,0.324218 -0.42579,0.175782 -0.21484,0.08984 -0.21094,0.09375 -0.85156,0.386718 -0.42187,0.207032 -0.21485,0.105468 -0.21094,0.109375 -0.85156,0.449219 -0.42578,0.238281 -0.21094,0.121094 -0.21093,0.125 -1.82422,1.136719 -0.91016,0.621094 -0.45703,0.324218 -0.33984,0.246094 -0.11329,0.08594 -1.82421,1.414062 -0.91016,0.757812 -0.45703,0.390626 -0.22656,0.195312 -0.22657,0.203125 -1.67968,1.539063 -0.83985,0.8125 -0.41797,0.414062 -0.3164,0.316406 -0.10547,0.109375 -1.67969,1.750004 -0.83984,0.91797 -0.41797,0.46483 -0.21094,0.23439 -0.10547,0.12108 -0.10547,0.11719 -3.42578,4.08203 -1.71094,2.1836 -0.85937,1.125 -0.42578,0.57031 -0.21485,0.28515 -0.10546,0.14455 -0.10938,0.14453 -7.33984,10.61328 -6.76563,10.78125 z m 0,0"
         style="fill:#e19c23;fill-opacity:0.2;fill-rule:nonzero;stroke:#e19c23;stroke-width:1;stroke-linecap:square;stroke-linejoin:miter;stroke-miterlimit:3.23930693;stroke-opacity:0.2"
         inkscape:connector-curvature="0" />
      <path
         id="path5444"
         transform="translate(-66,-5)"
         d="M 73.199219,141.67969 H 250.71484 l -1.42968,-2.98828 -6.72657,-14.51953 -6.85937,-14.83594 -7.34766,-15.414065 -6.77344,-13.324219 -7.26562,-12.882812 -3.69922,-5.871094 -1.84766,-2.742188 -0.92578,-1.316406 -0.46093,-0.644531 -0.23438,-0.320313 -0.11328,-0.160156 -0.11719,-0.15625 -3.41406,-4.417968 -1.70703,-2.019532 -0.85156,-0.957031 -0.42579,-0.464844 -0.21484,-0.230469 -0.10547,-0.117187 -0.10937,-0.113281 -1.82813,-1.867188 -0.91406,-0.871094 -0.45703,-0.421874 -0.22656,-0.207032 -0.11719,-0.105468 -0.11328,-0.101563 -1.82813,-1.542969 -0.91406,-0.710937 -0.45703,-0.339844 L 193,41.847656 l -0.22656,-0.164062 -1.6875,-1.125 -0.84375,-0.507813 -0.42188,-0.242187 -0.3164,-0.175782 -0.10157,-0.05859 -0.84375,-0.4375 -0.63281,-0.304688 -0.21094,-0.09375 -0.84375,-0.367187 -0.42187,-0.167969 -0.21094,-0.08203 -0.21094,-0.07813 -0.90234,-0.3125 -0.45313,-0.140625 -0.22656,-0.06641 -0.11328,-0.03516 -0.11328,-0.03125 -0.44922,-0.117187 -0.22656,-0.05859 -0.22656,-0.05469 -0.45313,-0.09766 -0.22656,-0.04687 -0.11328,-0.01953 -0.10938,-0.02344 -0.45312,-0.07812 -0.22657,-0.03516 -0.45312,-0.0625 -0.11328,-0.01172 -0.11328,-0.01562 -0.22266,-0.02344 -0.22656,-0.02344 -0.22656,-0.01953 -0.56641,-0.03906 -0.11328,-0.0039 -0.11328,-0.0078 -0.11328,-0.0039 -0.10938,-0.0039 H 179.25 l -0.22656,-0.0078 h -0.45703 l -0.11329,0.0039 h -0.11718 l -0.11328,0.0039 -0.11719,0.0039 -0.11328,0.0039 -0.11719,0.0039 -0.11328,0.0039 -0.11719,0.0078 -0.11328,0.0078 -0.11719,0.0039 -0.11328,0.0078 -0.11719,0.01172 -0.11328,0.0078 -0.11719,0.01172 -0.22656,0.01953 -0.11719,0.01172 -0.11328,0.01563 -0.23047,0.02734 -0.11718,0.01172 -0.11328,0.01563 -0.23047,0.03516 -0.11719,0.01563 -0.11328,0.01953 -0.23047,0.03516 -0.11719,0.01953 -0.11328,0.02344 -0.46094,0.08594 -0.23047,0.05078 -0.11328,0.02344 -0.11718,0.02734 -0.46094,0.105469 -0.23047,0.05859 -0.22656,0.0625 -0.46094,0.128906 -0.23047,0.07031 -0.11719,0.03516 -0.11328,0.03516 -0.46094,0.152344 -0.23046,0.07813 -0.11329,0.03906 -0.11718,0.04297 -0.84766,0.320312 -0.42578,0.171876 -0.21094,0.08984 -0.10937,0.04687 -0.10547,0.04687 -0.84766,0.390625 -0.42578,0.207032 -0.32031,0.160156 -0.10547,0.05469 -0.84766,0.457031 -0.42578,0.238282 -0.21094,0.125 -0.10546,0.05859 -0.10938,0.06641 -0.84766,0.519531 -0.42578,0.269531 -0.3164,0.210938 -0.10938,0.07031 -1.82031,1.285156 -0.91016,0.699219 -0.45312,0.359375 -0.23047,0.183594 -0.11328,0.09375 -0.11328,0.08984 -1.82032,1.5625 -0.91015,0.828125 -0.45703,0.425781 -0.22657,0.214844 -0.22656,0.21875 -1.67969,1.664062 -0.83984,0.871094 -0.41797,0.445312 -0.21094,0.222657 -0.10156,0.113281 -0.10547,0.113281 -1.67968,1.859375 -0.83985,0.964844 -0.41797,0.488281 -0.21093,0.246094 -0.21094,0.25 -6.84375,8.777344 -7.33594,10.535156 -6.76562,10.328125 -7.25,11.242188 -7.38672,11.121093 -6.81641,9.51563 -3.64844,4.66797 -1.82812,2.19921 -0.91016,1.0625 -0.45703,0.51954 -0.23047,0.26171 -0.11328,0.12891 -0.11328,0.125 -3.367188,3.59766 -1.683593,1.65234 -0.839844,0.78906 -0.632813,0.57422 -0.210937,0.1875 -1.714844,1.47656 -0.859375,0.69532 -0.429687,0.33593 -0.214844,0.16407 -0.105469,0.082 -0.109375,0.082 -1.714843,1.24609 -0.859376,0.57813 -0.429687,0.27734 -0.214844,0.13672 -0.105469,0.0664 -0.105468,0.0703 -1.839844,1.07031 -0.917969,0.48047 -0.691406,0.33984 -0.113281,0.0547 -0.117188,0.0508 -0.917968,0.41016 -0.460938,0.1914 -0.230469,0.0937 -0.113281,0.043 -0.117188,0.0469 -0.917968,0.33594 -0.460938,0.15234 -0.226562,0.0742 -0.117188,0.0352 -0.113281,0.0352 -0.847656,0.24219 -0.425781,0.10937 -0.210938,0.0508 -0.105469,0.0234 -0.105469,0.0273 -0.425781,0.0937 -0.210937,0.043 -0.210938,0.0391 -0.425781,0.0781 -0.210937,0.0352 -0.105469,0.0156 -0.105469,0.0195 -0.425781,0.0586 -0.210938,0.0273 -0.105469,0.0156 -0.109374,0.0117 -0.210938,0.0234 -0.105469,0.008 -0.105469,0.0117 -0.210937,0.0195 -0.109375,0.008 -0.527344,0.0391 -0.105468,0.004 -0.105469,0.008 -0.109375,0.004 -0.316406,0.0117 h -0.105469 l -0.210938,0.008 z m 0,0"
         style="fill:#e19c23;fill-opacity:0.2;fill-rule:nonzero;stroke:#e19c23;stroke-width:1;stroke-linecap:square;stroke-linejoin:miter;stroke-miterlimit:3.23930693;stroke-opacity:0.2"
         inkscape:connector-curvature="0" />
      <path
         id="path5446"
         transform="translate(-66,-5)"
         d="M 410.54297,141.67969 H 293.72266 l 5.21093,9.60547 6.70313,11.71093 7.27734,11.60157 0.21094,0.32031 0.21094,0.3164 0.42578,0.625 0.84765,1.24219 1.69922,2.41406 3.39453,4.55469 0.11329,0.14453 0.11718,0.14844 0.22657,0.29297 0.46093,0.57812 0.92188,1.13672 1.83984,2.1836 0.22656,0.26562 0.23047,0.26172 0.46094,0.51953 0.92188,1.01172 1.83984,1.92578 0.10547,0.10938 0.10937,0.10937 0.21485,0.21094 0.42578,0.42578 0.85937,0.82422 1.71875,1.55859 0.10938,0.0937 0.10547,0.0937 0.21484,0.1836 0.42969,0.36328 0.85937,0.70703 1.71875,1.3125 0.10547,0.0742 0.10547,0.0781 0.20703,0.14844 0.42188,0.29688 0.84375,0.5664 0.10547,0.0703 0.10546,0.0664 0.21094,0.13672 0.41797,0.26172 0.84375,0.50781 0.10547,0.0586 0.10547,0.0625 0.63281,0.35157 0.83984,0.4414 0.21094,0.10938 0.63281,0.30469 0.83985,0.3789 0.11719,0.0469 0.11328,0.0508 0.22656,0.0937 0.45703,0.18359 0.11328,0.043 0.11719,0.0469 0.22656,0.0859 0.45703,0.16407 0.22657,0.0781 0.23046,0.0742 0.45704,0.14844 0.91406,0.26172 0.11328,0.0312 0.11328,0.0273 0.23047,0.0586 0.45703,0.10547 0.11328,0.0273 0.11328,0.0234 0.22657,0.0508 0.45703,0.0859 0.11718,0.0234 0.33985,0.0586 0.11328,0.0156 0.11719,0.0195 0.22656,0.0352 0.11328,0.0156 0.11719,0.0156 0.22656,0.0273 0.11328,0.0117 0.11719,0.0156 0.22656,0.0234 0.10547,0.0117 0.10938,0.008 0.10546,0.0117 0.21094,0.0156 0.10938,0.008 0.21093,0.0156 0.10938,0.004 0.10547,0.008 0.10547,0.004 0.10547,0.008 0.10937,0.004 0.21094,0.008 h 0.10937 l 0.10547,0.004 h 0.10547 l 0.10547,0.004 h 0.42578 l 0.10938,-0.004 h 0.10546 l 0.10547,-0.004 0.10938,-0.004 h 0.10547 l 0.10547,-0.004 0.10546,-0.008 0.10938,-0.004 0.10547,-0.004 0.10547,-0.008 0.10937,-0.004 0.31641,-0.0234 0.10937,-0.008 0.21094,-0.0195 0.10938,-0.0117 0.10546,-0.008 0.21094,-0.0234 0.42578,-0.0508 0.10938,-0.0156 0.10547,-0.0156 0.21484,-0.0273 0.42578,-0.0703 0.10547,-0.0156 0.10547,-0.0195 0.21484,-0.0391 0.42578,-0.0859 0.11719,-0.0234 0.11328,-0.0234 0.23047,-0.0508 0.46094,-0.10937 0.11719,-0.0273 0.11718,-0.0312 0.23047,-0.0586 0.46094,-0.12891 0.11719,-0.0352 0.11328,-0.0352 0.23047,-0.0664 0.46094,-0.14844 0.92578,-0.32031 0.11718,-0.043 0.11329,-0.043 0.23046,-0.0898 0.46094,-0.18359 0.92578,-0.39453 0.11719,-0.0547 0.11328,-0.0508 0.23047,-0.10547 0.46094,-0.22265 0.92578,-0.46485 0.11328,-0.0625 0.11328,-0.0586 0.22656,-0.1211 0.45313,-0.2539 0.90625,-0.52735 1.81641,-1.15234 0.11328,-0.0781 0.11328,-0.0742 0.22656,-0.15625 0.45313,-0.32032 0.90625,-0.65625 1.8164,-1.41406 0.21094,-0.17187 0.21094,-0.17578 0.42187,-0.35547 0.84766,-0.72657 1.6914,-1.53125 3.38282,-3.36328 0.11718,-0.12109 0.11329,-0.12109 0.23046,-0.2461 0.45704,-0.49219 0.91796,-1 1.83594,-2.08593 3.66797,-4.45703 6.85156,-9.20313 6.71875,-9.86719 7.28907,-11.2539 z m 0,0"
         style="fill:#8fb030;fill-opacity:0.2;fill-rule:nonzero;stroke:#8fb030;stroke-width:1;stroke-linecap:square;stroke-linejoin:miter;stroke-miterlimit:3.23930693;stroke-opacity:0.2"
         inkscape:connector-curvature="0" />
      <path
         id="path5448"
         transform="translate(-66,-5)"
         d="m 410.54297,141.67969 h 8.25781 v -12.59766 l -0.12109,0.17578 -0.23438,0.35156 -0.12109,0.17579 -0.23438,0.35546 -0.12109,0.17579 -0.11719,0.17578 -0.47656,0.71093 -0.23438,0.35547 -0.12109,0.17969 -0.11719,0.17969 -0.94922,1.42969 -0.47265,0.72265 -0.23828,0.35938 -0.1211,0.18359 -0.11718,0.17969 -1.89844,2.91015 -0.94922,1.46485 -0.47266,0.73828 -0.23828,0.36719 -0.11719,0.18359 -0.12109,0.18359 z m 0,0"
         style="fill:#8fb030;fill-opacity:0.2;fill-rule:nonzero;stroke:#8fb030;stroke-width:1;stroke-linecap:square;stroke-linejoin:miter;stroke-miterlimit:3.23930693;stroke-opacity:0.2"
         inkscape:connector-curvature="0" />
      <path
         id="path5450"
         transform="translate(-66,-5)"
         d="M 73.199219,141.67969 H 293.72266 l -1.62891,-3 -7.32813,-13.83594 -6.75781,-12.6875 -7.24219,-13.117188 -7.3789,-12.453124 -6.8086,-10.339844 -3.64843,-4.996094 -1.82032,-2.339844 -0.91406,-1.128906 -0.45703,-0.554688 -0.45312,-0.546874 -3.36329,-3.808594 -1.67968,-1.753906 -0.84375,-0.835938 -0.41797,-0.410156 -0.21094,-0.199219 -0.21094,-0.203125 -1.71484,-1.570312 -0.85547,-0.746094 -0.42969,-0.363282 -0.21484,-0.175781 -0.10547,-0.08984 -0.10937,-0.08984 -1.71485,-1.347656 -0.85547,-0.628907 -0.42968,-0.304687 -0.21485,-0.148438 -0.10547,-0.07422 -0.10937,-0.07422 -1.83594,-1.195313 -0.91797,-0.542968 -0.46094,-0.261719 -0.22656,-0.128907 -0.11719,-0.0625 -0.11328,-0.0625 -0.91797,-0.476562 -0.46093,-0.226562 -0.23047,-0.109376 -0.22656,-0.109374 -0.92188,-0.410157 -0.45703,-0.195312 -0.23047,-0.09375 -0.11328,-0.04687 -0.11719,-0.04297 -0.84375,-0.320313 -0.42578,-0.148437 -0.42187,-0.140625 -0.84766,-0.261719 -0.42578,-0.117187 -0.21094,-0.05859 -0.21094,-0.05469 -0.84765,-0.203124 -0.42188,-0.09375 -0.21094,-0.04297 -0.10937,-0.01953 -0.52734,-0.09766 -0.21094,-0.03516 -0.10547,-0.01953 -0.10547,-0.01563 -0.42578,-0.0625 -0.21094,-0.03125 -0.10547,-0.01172 -0.10547,-0.01563 -0.45703,-0.05078 -0.33984,-0.03516 -0.11328,-0.0078 -0.22656,-0.01953 -0.67969,-0.04687 -0.22656,-0.0078 -0.11329,-0.0078 -0.22656,-0.0078 h -0.11719 l -0.22656,-0.0078 h -0.11328 l -0.11328,-0.0039 h -0.45313 l -0.11328,0.0039 h -0.11328 l -0.11328,0.0039 h -0.11328 l -0.45313,0.01563 -0.11328,0.0078 -0.11328,0.0039 -0.23047,0.01172 -0.45312,0.03125 -0.11328,0.01172 -0.11328,0.0078 -0.22657,0.02344 -0.11328,0.0078 -0.11328,0.01172 -0.22656,0.02734 -0.22656,0.02344 -0.22657,0.03125 -0.11718,0.01172 -0.33985,0.04687 -0.11328,0.01953 -0.11328,0.01563 -0.46094,0.07422 -0.23047,0.04297 -0.11718,0.01953 -0.11719,0.02344 -0.46094,0.08984 -0.23047,0.04687 -0.11719,0.02734 -0.11328,0.02344 L 212,48.71875 l -0.23047,0.05469 -0.11328,0.02734 -0.11719,0.03125 -0.46094,0.121094 -0.23437,0.06641 -0.11328,0.03125 -0.11719,0.03125 -0.92187,0.285157 -0.46485,0.152343 -0.23047,0.07813 -0.11718,0.03906 -0.11329,0.03906 -0.92578,0.34375 -0.46093,0.179688 -0.23438,0.09375 -0.11328,0.04687 -0.11719,0.05078 -1.70703,0.757813 -0.85156,0.414062 -0.42578,0.21875 -0.21485,0.109375 -0.10547,0.05469 -0.10937,0.05859 -1.70703,0.945313 -0.85156,0.507812 -0.42579,0.261719 -0.21484,0.132812 -0.10547,0.06641 -0.10937,0.06641 -1.82813,1.203125 -0.91406,0.640625 -0.45703,0.324219 -0.22656,0.167968 -0.11719,0.08203 -0.11328,0.08594 -1.82813,1.386719 -0.91406,0.726562 -0.45703,0.371094 -0.23047,0.1875 -0.22656,0.1875 -3.3711,2.921875 -1.6875,1.554688 -0.84375,0.800781 -0.42187,0.402344 -0.42188,0.40625 -7.23047,7.457031 -7.36718,8.257813 -6.79688,7.910156 -7.28125,8.484375 -6.71484,7.574217 -6.84375,7.25781 -7.33594,7.05078 -6.76562,5.6875 -3.625,2.69531 -1.8125,1.25 -0.90625,0.60157 -0.45313,0.29687 -0.22656,0.14453 -0.11328,0.0703 -0.11328,0.0742 -3.69141,2.21094 -1.84766,1.00781 -0.92187,0.47657 -0.46484,0.23046 -0.23047,0.11329 -0.11328,0.0586 -0.11719,0.0547 -1.70313,0.80859 -0.85156,0.37891 -0.42578,0.1875 -0.21484,0.0898 -0.10547,0.0469 -0.10547,0.043 -1.70313,0.69532 -0.85547,0.32812 -0.42578,0.15625 -0.3164,0.11719 -0.10938,0.0391 -1.82422,0.625 -0.91406,0.29297 -0.45703,0.14063 -0.22656,0.0664 -0.11328,0.0352 -0.11329,0.0312 -1.82812,0.51172 -0.91016,0.23437 -0.45703,0.11328 -0.23047,0.0547 -0.22656,0.0547 -1.683594,0.37109 -0.839844,0.17188 -0.421874,0.082 -0.421876,0.0781 -0.839843,0.14844 -0.421875,0.0742 -0.210938,0.0312 -0.105468,0.0195 -0.105469,0.0156 -0.839844,0.13281 -0.421875,0.0586 -0.421875,0.0625 -1.714844,0.21875 -0.859375,0.0977 -0.429687,0.043 -0.214844,0.0234 -0.105469,0.0117 -0.109375,0.008 -0.855469,0.082 -0.429687,0.0352 -0.214844,0.0195 -0.109375,0.008 -0.105468,0.008 -0.859376,0.0664 -0.644531,0.0469 -0.105469,0.004 -0.105468,0.008 -0.921875,0.0547 -0.457031,0.0273 -0.230469,0.0117 -0.117188,0.004 -0.113281,0.008 -0.460938,0.0195 -0.230468,0.0117 -0.226563,0.008 -0.460937,0.0195 -0.230469,0.008 -0.113281,0.004 -0.117188,0.004 -0.460937,0.0156 -0.226563,0.008 -0.117187,0.004 -0.113281,0.004 -0.460938,0.0117 -0.230469,0.008 -0.113281,0.004 h -0.117188 l -0.457031,0.0117 -0.230469,0.004 -0.113281,0.004 h -0.117187 l -0.460938,0.0117 -0.226562,0.004 h -0.230469 l -0.425781,0.008 -0.210938,0.004 h -0.210937 l -0.214844,0.004 H 78.710938 L 78.5,141.66406 h -0.210938 l -0.214843,0.004 h -0.210938 l -0.210937,0.004 h -0.53125 l -0.105469,0.004 H 76.0625 l -0.105469,0.004 z m 0,0"
         style="fill:#8fb030;fill-opacity:0.2;fill-rule:nonzero;stroke:#8fb030;stroke-width:1;stroke-linecap:square;stroke-linejoin:miter;stroke-miterlimit:3.23930693;stroke-opacity:0.2"
         inkscape:connector-curvature="0" />
      <path
         id="path5452"
         transform="translate(-66,-5)"
         d="m 418.80078,189.06641 v -47.38672 h -83.32812 l 5.19531,8.6289 7.30859,11.54297 6.82031,9.90235 0.11719,0.16015 0.11328,0.16016 0.23047,0.3164 0.46094,0.625 0.92578,1.24219 1.84766,2.41406 3.69531,4.55079 0.11328,0.13281 0.11328,0.13672 0.22656,0.26172 0.45313,0.52734 0.90625,1.03125 1.81641,1.98437 0.22656,0.24219 0.67969,0.71485 0.90625,0.92578 1.8164,1.77343 0.10547,0.0977 0.10547,0.10156 0.21094,0.19532 0.42187,0.39453 0.84766,0.76172 1.6914,1.45312 0.21094,0.17188 0.21094,0.17578 0.42578,0.33984 0.84375,0.66016 1.69141,1.24218 0.11718,0.082 0.11329,0.082 0.23046,0.15625 0.45704,0.3125 0.91796,0.59765 0.11329,0.0703 0.11718,0.0742 0.22657,0.14063 0.46093,0.28125 0.91797,0.53125 0.11328,0.0664 0.11328,0.0625 0.23047,0.1289 0.46094,0.2461 0.91406,0.46875 1.83594,0.83593 0.10938,0.043 0.10546,0.0469 0.21485,0.0859 0.42578,0.16797 0.85937,0.31641 0.10547,0.0391 0.10547,0.0352 0.21485,0.0742 0.42968,0.14062 0.85547,0.25781 0.10938,0.0312 0.10547,0.0273 0.21484,0.0586 0.42578,0.10938 0.10938,0.0273 0.10546,0.0273 0.21485,0.0508 0.42969,0.0937 0.10546,0.0234 0.10938,0.0234 0.21094,0.043 0.42968,0.0781 0.10547,0.0195 0.10938,0.0195 0.21484,0.0352 0.42578,0.0664 0.21094,0.0312 0.21094,0.0273 0.10547,0.0117 0.10156,0.0117 0.21094,0.0273 0.10547,0.0117 0.10546,0.008 0.21094,0.0234 0.10547,0.008 0.10156,0.0117 0.52735,0.0391 0.10547,0.004 0.10156,0.008 0.10547,0.004 0.10547,0.008 0.52734,0.0195 h 0.10156 l 0.10547,0.004 h 0.10547 l 0.10547,0.004 h 0.52344 l 0.10546,-0.004 h 0.10547 l 0.21094,-0.008 h 0.10547 l 0.10547,-0.004 0.10156,-0.004 0.10547,-0.008 0.10547,-0.004 0.21094,-0.0117 0.10546,-0.004 0.10547,-0.008 0.20703,-0.0156 0.21094,-0.0156 0.21094,-0.0195 0.10547,-0.008 0.10547,-0.0117 0.20703,-0.0234 0.42187,-0.0469 0.45313,-0.0625 0.45703,-0.0703 0.11328,-0.0195 0.11328,-0.0156 0.23047,-0.043 0.45313,-0.0859 0.11328,-0.0234 0.11718,-0.0234 0.22657,-0.0469 0.45312,-0.10156 0.91406,-0.23047 0.22657,-0.0625 0.22656,-0.0664 0.45703,-0.13281 0.91016,-0.29687 0.22656,-0.0781 0.23047,-0.0781 0.45312,-0.16797 0.91407,-0.35938 0.10546,-0.043 0.10547,-0.0469 0.21094,-0.0898 0.42578,-0.18359 0.85156,-0.39062 1.69922,-0.86329 0.21094,-0.11718 0.21484,-0.11719 0.42579,-0.23828 0.84765,-0.4961 1.69922,-1.07421 0.12109,-0.0781 0.11719,-0.082 0.23828,-0.16016 0.47266,-0.32422 0.94922,-0.67578 1.89844,-1.4414 0.11718,-0.0937 0.1211,-0.0937 0.23828,-0.19141 0.47265,-0.38672 0.94922,-0.79687 0.11719,-0.10157 0.12109,-0.10156 0.23438,-0.20312 0.47656,-0.41797 0.11719,-0.10547 0.12109,-0.10547 0.23438,-0.21094 0.12109,-0.10547 0.11719,-0.10937 0.11719,-0.10547 z m 0,0"
         style="fill:#eb6133;fill-opacity:0.2;fill-rule:nonzero;stroke:#eb6133;stroke-width:1;stroke-linecap:square;stroke-linejoin:miter;stroke-miterlimit:3.23930693;stroke-opacity:0.2"
         inkscape:connector-curvature="0" />
      <path
         id="path5454"
         transform="translate(-66,-5)"
         d="M 73.199219,141.67969 H 335.47266 l -1.53907,-2.55469 -6.87109,-11.63672 -7.35938,-12.36719 -6.78906,-11.00781 -7.27734,-11.058592 -6.70313,-9.261719 -3.42187,-4.3125 -1.70703,-2.039063 -0.85547,-0.992187 -0.42969,-0.488281 -0.21094,-0.242188 -0.10937,-0.117188 -0.10547,-0.121093 -3.66406,-3.921875 -1.83203,-1.8125 -0.91407,-0.867188 -0.46093,-0.425781 -0.22657,-0.207031 -0.11718,-0.105469 -0.11329,-0.105469 -3.3789,-2.878906 -1.6875,-1.300781 -0.84375,-0.617188 -0.42188,-0.300781 -0.21484,-0.148438 -0.10547,-0.07031 -0.10547,-0.07422 -1.80859,-1.195312 -0.90625,-0.558594 -0.79297,-0.464844 -0.11328,-0.0625 -1.8086,-0.980469 -0.90625,-0.445312 -0.45312,-0.214844 -0.22656,-0.105468 -0.22657,-0.101563 -1.84375,-0.773437 -0.92187,-0.34375 -0.46094,-0.164063 -0.23047,-0.07813 -0.11718,-0.03906 -0.11329,-0.03516 -0.92578,-0.289062 -0.46093,-0.132813 -0.23047,-0.0625 -0.11328,-0.03516 -0.11719,-0.02734 -0.92188,-0.234375 -0.46093,-0.105469 -0.23047,-0.05078 -0.11328,-0.02344 -0.11719,-0.02344 -0.85156,-0.164062 -0.42579,-0.07031 -0.21093,-0.03516 -0.10547,-0.01563 -0.10938,-0.01563 -0.42578,-0.0625 -0.21094,-0.02734 -0.10546,-0.01563 -0.10547,-0.01172 -0.42578,-0.05078 -0.21485,-0.02344 -0.10547,-0.0078 -0.10547,-0.01172 -0.42578,-0.03906 -0.21484,-0.01563 -0.21094,-0.01563 -0.21484,-0.01172 -0.21094,-0.01563 -0.10547,-0.0039 -0.10937,-0.0039 -0.10547,-0.0078 -0.31641,-0.01172 -0.10937,-0.0039 -0.10547,-0.0039 H 257.75 l -0.10547,-0.0039 h -0.10937 l -0.10547,-0.0039 h -0.21094 l -0.10938,-0.0039 h -0.3164 l -0.10547,0.0039 h -0.22266 l -0.22656,0.0078 H 256.125 l -0.11719,0.0039 -0.33984,0.01172 -0.23047,0.01172 -0.11328,0.0039 -0.11328,0.0078 -0.11328,0.0039 -0.22657,0.01563 -0.11718,0.0078 -0.33985,0.02344 -0.11328,0.01172 -0.23047,0.01953 -0.11328,0.01172 -0.11328,0.0078 -0.22656,0.02344 -0.11719,0.01172 -0.11328,0.01172 -0.22656,0.02734 -0.11329,0.01563 -0.11718,0.01172 -0.45313,0.05859 -0.23047,0.03516 -0.22656,0.03125 -0.45703,0.07422 -0.45313,0.07813 -0.45703,0.08203 -0.23047,0.04687 -0.22656,0.04688 -0.45703,0.09375 -0.22656,0.05078 -0.22656,0.05469 -0.84375,0.203125 -0.41797,0.109375 -0.21094,0.05859 -0.10547,0.02734 -0.10547,0.03125 -0.83984,0.242187 -0.41797,0.132813 -0.21094,0.06641 -0.10547,0.03125 -0.10547,0.03516 -0.83984,0.285156 -0.63281,0.222657 -0.10547,0.03906 -0.10156,0.03906 -0.84375,0.320312 -0.41797,0.167969 -0.42188,0.171875 -1.71484,0.75 -0.85547,0.402344 -0.42969,0.207031 -0.21484,0.105469 -0.10547,0.05469 -0.10937,0.05078 -1.71485,0.894532 -0.85547,0.46875 -0.42968,0.242187 -0.21485,0.125 -0.10547,0.0625 -0.10937,0.05859 -1.83594,1.101563 -0.91797,0.574218 -0.46094,0.296875 -0.22656,0.148438 -0.11719,0.07422 -0.11328,0.07422 -1.83593,1.238282 -0.92188,0.644531 -0.45703,0.324219 -0.23047,0.167968 -0.11328,0.08203 -0.11719,0.08203 -6.77344,5.28125 -7.26562,6.332031 -7.39844,6.914062 -6.82812,6.574219 -7.3125,7.035157 -6.7461,6.29297 -7.23047,6.38672 -7.36718,5.97265 -6.79688,4.9375 -7.28125,4.6211 -3.35547,1.88281 -1.67968,0.88281 -0.83985,0.42969 -0.41797,0.20703 -0.21093,0.10547 -0.21094,0.10156 -3.42188,1.60547 -1.71093,0.74219 -0.85547,0.35546 -0.42969,0.17579 -0.21484,0.0859 -0.21094,0.0859 -3.66797,1.37891 -1.83594,0.625 -0.91406,0.29687 -0.46094,0.14453 -0.22656,0.0742 -0.11719,0.0352 -0.11328,0.0352 -1.69141,0.50391 -0.84375,0.23828 -0.42578,0.11719 -0.21093,0.0547 -0.10547,0.0312 -0.10547,0.0273 -1.69141,0.4375 -0.84375,0.20703 -0.42187,0.10156 -0.21485,0.0469 -0.10547,0.0273 -0.10546,0.0234 -1.8125,0.40234 -0.90625,0.1875 -0.45313,0.0898 -0.33984,0.0703 -0.11328,0.0195 -1.8125,0.33594 -0.90625,0.16016 -0.45313,0.0742 -0.22656,0.0391 -0.11328,0.0156 -0.11328,0.0195 -1.84766,0.28125 -0.92187,0.13282 -0.69141,0.0937 -0.11719,0.0156 -0.11328,0.0117 -1.84766,0.23047 -0.92187,0.10156 -0.46484,0.0508 -0.23047,0.0234 -0.11328,0.0156 -0.11719,0.0117 -1.70313,0.16407 -0.85156,0.0781 -0.42578,0.0352 -0.21484,0.0195 -0.21094,0.0156 -0.85156,0.0664 -0.42579,0.0352 -0.21484,0.0156 -0.10547,0.004 -0.10547,0.008 -0.85547,0.0625 -0.42578,0.0273 -0.21093,0.0117 -0.10547,0.008 -0.10938,0.008 -1.82422,0.10547 -1.37109,0.0703 -0.22656,0.008 -0.11328,0.008 -0.11329,0.004 -1.37109,0.0586 -0.22656,0.0117 -0.11719,0.004 -0.11328,0.004 -0.91016,0.0312 -0.45703,0.0156 -0.23047,0.008 -0.22656,0.008 -0.84375,0.0273 -0.417969,0.0117 -0.210937,0.004 -0.210938,0.008 -0.839844,0.0195 -0.421874,0.0117 -0.210938,0.004 -0.105469,0.004 h -0.105469 l -0.839843,0.0195 -0.632813,0.0117 h -0.105468 l -0.105469,0.004 -0.839844,0.0156 -0.421875,0.004 -0.210938,0.004 h -0.105468 l -0.105469,0.004 -0.855469,0.0117 -0.429687,0.004 -0.214844,0.004 h -0.214844 l -0.429687,0.008 h -0.320313 l -0.109375,0.004 -0.429687,0.004 h -0.320313 l -0.109375,0.004 -0.855469,0.004 -0.429687,0.004 h -0.214844 l -0.109375,0.004 H 88.625 l -0.214844,0.004 h -0.214844 l -0.429687,0.004 h -0.425781 l -0.460938,0.004 h -0.917968 l -0.230469,0.004 h -1.148438 l -0.230469,0.004 h -2.300781 l -0.113281,0.004 z m 0,0"
         style="fill:#eb6133;fill-opacity:0.2;fill-rule:nonzero;stroke:#eb6133;stroke-width:1;stroke-linecap:square;stroke-linejoin:miter;stroke-miterlimit:3.23930693;stroke-opacity:0.2"
         inkscape:connector-curvature="0" />
      <path
         id="path5456"
         transform="translate(-66,-5)"
         d="m 73.199219,141.67969 0.105469,-0.33203 0.105468,-0.32813 0.214844,-0.66406 0.421875,-1.32422 0.847656,-2.64453 1.699219,-5.28125 3.390625,-10.5 7.355469,-22.144532 6.863281,-19.371094 6.734375,-17.210938 0.11328,-0.277344 0.11328,-0.269531 0.23047,-0.546875 0.45703,-1.078125 0.91016,-2.128906 1.82812,-4.125 3.64844,-7.695313 0.10938,-0.210937 0.10547,-0.214844 0.21093,-0.421875 0.42578,-0.835937 0.85547,-1.640625 1.70313,-3.144532 0.21094,-0.382812 0.21484,-0.375 0.42578,-0.746094 0.85156,-1.460937 1.70313,-2.773438 0.11719,-0.179687 0.11328,-0.179688 0.23047,-0.359375 0.46484,-0.703125 0.92187,-1.367187 1.84766,-2.558594 0.11328,-0.152344 0.11719,-0.148437 0.23047,-0.300782 0.46094,-0.585937 0.92187,-1.132813 1.84766,-2.082031 0.11328,-0.117187 0.11328,-0.121094 0.22656,-0.234375 0.45313,-0.457031 0.90625,-0.875 0.11328,-0.105469 0.11328,-0.101563 0.22656,-0.207031 0.45313,-0.398437 0.90625,-0.753906 0.22656,-0.179688 0.22656,-0.175781 0.45313,-0.339844 0.90625,-0.632813 0.22656,-0.148437 0.22656,-0.144531 0.45313,-0.277344 0.90625,-0.511719 0.21093,-0.109375 0.21485,-0.109375 0.52734,-0.253906 0.31641,-0.140625 0.42187,-0.179688 0.10547,-0.04297 0.10547,-0.03906 0.21094,-0.08203 0.42578,-0.152344 0.21094,-0.07031 0.21093,-0.06641 0.42188,-0.125 0.10547,-0.02734 0.10547,-0.03125 0.21093,-0.05078 0.10547,-0.02734 0.10547,-0.02344 0.21484,-0.05078 0.10547,-0.01953 0.10547,-0.02344 0.42188,-0.07813 0.21093,-0.03516 0.10547,-0.01563 0.10547,-0.01172 0.10547,-0.01563 0.10547,-0.01172 0.10547,-0.01562 0.10547,-0.01172 0.21093,-0.01953 0.10938,-0.0078 0.42187,-0.03125 0.31641,-0.01172 h 0.11328 l 0.11719,-0.0039 h 0.34375 l 0.22656,0.0078 0.11719,0.0039 0.11328,0.0039 0.11328,0.0078 0.11719,0.0039 0.11328,0.0078 0.11328,0.01172 0.11719,0.0078 0.22656,0.02344 0.11719,0.01172 0.11328,0.01563 0.23047,0.03125 0.11328,0.01563 0.11328,0.01953 0.23047,0.03516 0.11328,0.02344 0.11719,0.01953 0.22656,0.04687 0.46094,0.101563 0.11328,0.03125 0.11328,0.02734 0.23047,0.0625 0.45703,0.132813 0.11719,0.03516 0.11328,0.03906 0.23047,0.07813 0.45703,0.164062 0.11719,0.04297 0.11328,0.04297 0.23047,0.09375 0.45703,0.195312 0.91797,0.433594 0.10547,0.05469 0.10547,0.05859 0.21484,0.113281 0.42969,0.238282 0.85547,0.511718 0.10546,0.06641 0.10938,0.07031 0.21094,0.140625 0.42968,0.289062 0.85547,0.613282 0.10547,0.08203 0.10938,0.08203 0.21484,0.164063 0.42578,0.339843 0.85547,0.71875 1.71094,1.585938 0.10547,0.101562 0.3164,0.316407 0.41797,0.429687 0.83985,0.894532 1.67968,1.929687 0.10547,0.125 0.10156,0.128906 0.21094,0.257813 0.41797,0.519531 0.83984,1.078125 1.67969,2.28125 0.22656,0.320312 0.22657,0.328126 0.45703,0.660156 0.91015,1.359375 1.82032,2.859375 3.64062,6.269531 0.10938,0.191406 0.3164,0.585938 0.42578,0.785156 0.84766,1.597656 1.69922,3.300781 3.39844,6.992188 7.36718,16.695312 7.23047,17.90625 6.7461,17.460942 7.3125,19.10938 5.5625,14.16406 1.26562,3.23047 7.39844,17.72656 7.26562,15.67187 0.10547,0.21094 0.10547,0.21484 0.21094,0.42188 0.42578,0.84375 0.84375,1.65625 1.69531,3.22266 3.38672,6.03906 0.11719,0.19531 0.11328,0.19531 0.23047,0.38282 0.45703,0.76562 0.92188,1.49609 1.83593,2.85938 0.11328,0.17578 0.11719,0.17188 0.22656,0.33984 0.46094,0.67578 0.91797,1.32031 1.83594,2.49219 0.10937,0.14063 0.10547,0.14062 0.64453,0.82031 0.85547,1.0586 1.71485,1.98828 0.10937,0.11719 0.10547,0.12109 0.21484,0.23437 0.42969,0.45704 0.85547,0.88671 1.71484,1.64454 0.10547,0.0977 0.31641,0.28125 0.41797,0.36328 0.84375,0.69922 0.10156,0.0859 0.10547,0.082 0.21094,0.16797 0.42187,0.32031 0.83984,0.61328 0.21094,0.14844 0.21094,0.14453 0.41797,0.28125 0.83984,0.52735 0.21094,0.125 0.21094,0.12109 0.41797,0.23828 0.84375,0.44141 0.45312,0.21875 0.45703,0.21093 0.11328,0.0469 0.11328,0.0508 0.23047,0.0977 0.45703,0.17968 0.11329,0.0469 0.11328,0.043 0.22656,0.082 0.45703,0.15625 0.11328,0.0391 0.11328,0.0352 0.23047,0.0703 0.45313,0.13281 0.11718,0.0312 0.11329,0.0312 0.22656,0.0586 0.11328,0.0273 0.11719,0.0273 0.22656,0.0508 0.22656,0.0469 0.23047,0.0469 0.45313,0.082 0.11718,0.0156 0.11328,0.0195 0.45313,0.0625 0.23047,0.0234 0.33984,0.0352 0.11719,0.008 0.11328,0.0117 0.22656,0.0156 0.11328,0.004 0.10938,0.008 0.31641,0.0117 h 0.10546 l 0.10938,0.004 h 0.42578 l 0.10547,-0.004 h 0.10547 l 0.10547,-0.004 0.10937,-0.004 0.21094,-0.008 0.10547,-0.008 0.10547,-0.004 0.10937,-0.008 0.31641,-0.0234 0.21484,-0.0234 0.10547,-0.008 0.10547,-0.0117 0.21484,-0.0273 0.10547,-0.0117 0.10547,-0.0156 0.21484,-0.0312 0.10547,-0.0156 0.10547,-0.0195 0.21485,-0.0352 0.21093,-0.0391 0.21485,-0.043 0.10547,-0.0195 0.3164,-0.0703 0.42578,-0.10156 0.10938,-0.0273 0.10547,-0.0273 0.21093,-0.0586 0.42579,-0.12109 0.85156,-0.27735 0.11719,-0.043 0.11328,-0.043 0.23047,-0.082 0.46093,-0.18359 0.92188,-0.39453 0.11719,-0.0547 0.11328,-0.0547 0.23047,-0.10937 0.46093,-0.22656 0.92578,-0.49219 0.11329,-0.0664 0.11718,-0.0664 0.23047,-0.13282 0.46094,-0.27734 0.92187,-0.58594 1.84375,-1.30859 0.11329,-0.0859 0.11328,-0.0898 0.22656,-0.17578 0.45312,-0.35938 0.90625,-0.75 1.8086,-1.62891 0.11328,-0.10546 0.33984,-0.32813 0.45313,-0.44141 0.90625,-0.91406 1.80859,-1.94531 0.10547,-0.11719 0.10547,-0.12109 0.21484,-0.23828 0.42188,-0.48438 0.84375,-0.98828 1.6875,-2.07422 3.3789,-4.5 0.11329,-0.16015 0.11718,-0.16016 0.22657,-0.32031 0.46093,-0.65235 0.91407,-1.32812 1.83203,-2.73828 3.66406,-5.79688 6.83984,-11.76562 6.70313,-12.33594 7.27734,-13.74609 2.76953,-5.16797 4.01953,-7.4961 7.35938,-13.01171 6.87109,-11.01563 0.10547,-0.15625 0.10547,-0.16016 0.20703,-0.3125 0.42188,-0.625 0.84375,-1.23046 1.68359,-2.39063 3.36719,-4.47656 0.11719,-0.14453 0.33984,-0.4336 0.45703,-0.562502 0.91406,-1.109374 1.82813,-2.113282 0.22656,-0.257812 0.23047,-0.25 0.45703,-0.5 0.91016,-0.972656 1.82812,-1.832032 0.10547,-0.101562 0.10938,-0.101563 0.21093,-0.203125 0.42578,-0.398437 0.85547,-0.777344 1.70313,-1.449219 0.10547,-0.08594 0.10937,-0.08594 0.21094,-0.167969 0.42578,-0.332031 0.85156,-0.640625 1.70703,-1.183594 0.11719,-0.07422 0.11328,-0.07422 0.69141,-0.433594 0.92578,-0.539062 0.11719,-0.06641 0.11328,-0.0625 0.23047,-0.128906 0.46094,-0.242187 0.92578,-0.460938 0.11718,-0.05469 0.11329,-0.05469 0.23046,-0.105468 0.46094,-0.203126 0.11719,-0.05078 0.11719,-0.04687 0.23047,-0.09766 0.46093,-0.183594 0.11719,-0.04297 0.11328,-0.04297 0.23047,-0.08594 0.46094,-0.160156 0.92578,-0.296875 0.22656,-0.0625 0.22656,-0.06641 0.45313,-0.117188 0.45312,-0.109375 0.45313,-0.09766 0.22656,-0.04687 0.22656,-0.04297 0.11329,-0.01953 0.11718,-0.01953 0.22657,-0.03906 0.11328,-0.01563 0.11328,-0.01953 0.45312,-0.0625 0.22657,-0.02734 0.67968,-0.07031 0.56641,-0.03906 0.11328,-0.0039 0.11328,-0.0078 0.45313,-0.01562 h 0.11328 l 0.11328,-0.0039 h 0.45312 l 0.11329,0.0039 h 0.11328 l 0.5664,0.01953 0.11328,0.0078 0.11719,0.0039 0.52735,0.03906 0.10546,0.01172 0.21094,0.01953 0.42188,0.04687 0.42578,0.05469 0.42187,0.0625 0.42188,0.07422 0.21094,0.03906 0.21484,0.04297 0.42187,0.08984 0.21094,0.04687 0.21094,0.05078 0.42578,0.105469 0.10547,0.02734 0.10547,0.03125 0.21094,0.05859 0.42187,0.121093 0.10547,0.03516 0.10547,0.03125 0.21094,0.06641 0.42578,0.140625 0.84375,0.304688 0.11718,0.04687 0.11329,0.04297 0.23046,0.08984 0.45704,0.191406 0.91796,0.40625 0.11329,0.05469 0.11718,0.05469 0.22657,0.109375 0.46093,0.226563 0.91797,0.484375 0.22656,0.125 0.23047,0.132812 0.46094,0.261719 0.91406,0.558594 1.83594,1.222656 0.10938,0.07813 0.10546,0.07422 0.21485,0.15625 0.42578,0.3125 0.85937,0.648437 1.71094,1.390625 0.10938,0.08984 0.10547,0.08984 0.21484,0.183594 0.42578,0.375 0.85938,0.765624 1.71093,1.613282 0.10547,0.101562 0.10547,0.105469 0.21094,0.207031 0.41797,0.417969 0.83984,0.855469 1.67969,1.785156 3.35937,3.843753 7.28907,9.44141 6.79687,9.83984 0.12109,0.17578 0.11719,0.17969 0.23828,0.35937 0.47266,0.71485 0.94922,1.4414 1.89844,2.90625 0.11718,0.1836 0.1211,0.18359 0.23828,0.36719 0.47265,0.73047 0.94922,1.47265 0.11719,0.1875 0.12109,0.1836 0.23438,0.36718 0.47656,0.73829 0.11719,0.1875 0.12109,0.18359 0.23438,0.37109 0.12109,0.1836 0.11719,0.1875 0.11719,0.18359 0.12109,0.1875"
         style="fill:none;stroke:#5c7fb3;stroke-width:1.60000002;stroke-linecap:square;stroke-linejoin:miter;stroke-miterlimit:3.25;stroke-opacity:1"
         inkscape:connector-curvature="0" />
      <path
         id="path5458"
         transform="translate(-66,-5)"
         d="m 73.199219,141.67969 h 0.320312 l 0.210938,-0.008 h 0.105469 l 0.316406,-0.0117 0.109375,-0.004 0.105469,-0.008 0.105468,-0.004 0.527344,-0.0391 0.109375,-0.008 0.210937,-0.0195 0.105469,-0.0117 0.105469,-0.008 0.210938,-0.0234 0.109374,-0.0117 0.105469,-0.0156 0.210938,-0.0273 0.425781,-0.0586 0.105469,-0.0195 0.105469,-0.0156 0.210937,-0.0352 0.425781,-0.0781 0.210938,-0.0391 0.210937,-0.043 0.425781,-0.0937 0.105469,-0.0273 0.105469,-0.0234 0.210938,-0.0508 0.425781,-0.10937 0.847656,-0.24219 0.113281,-0.0352 0.117188,-0.0352 0.226562,-0.0742 0.460938,-0.15234 0.917968,-0.33594 0.117188,-0.0469 0.113281,-0.043 0.230469,-0.0937 0.460938,-0.1914 0.917968,-0.41016 0.117188,-0.0508 0.113281,-0.0547 0.691406,-0.33984 0.917969,-0.48047 1.839844,-1.07031 0.105468,-0.0703 0.105469,-0.0664 0.214844,-0.13672 0.429687,-0.27734 0.859376,-0.57813 1.714843,-1.24609 0.109375,-0.082 0.105469,-0.082 0.214844,-0.16407 0.429687,-0.33593 0.859375,-0.69532 1.714844,-1.47656 0.210937,-0.1875 0.632813,-0.57422 0.839844,-0.78906 1.683593,-1.65234 3.367188,-3.59766 0.11328,-0.125 0.11328,-0.12891 0.23047,-0.26171 0.45703,-0.51954 0.91016,-1.0625 1.82812,-2.19921 3.64844,-4.66797 6.81641,-9.51563 7.38672,-11.121092 7.25,-11.242188 6.76562,-10.328125 7.33594,-10.535156 6.84375,-8.777344 0.21094,-0.25 0.21093,-0.246094 0.41797,-0.488281 0.83985,-0.964844 1.67968,-1.859375 0.10547,-0.113281 0.10156,-0.113281 0.21094,-0.222657 0.41797,-0.445312 0.83984,-0.871094 1.67969,-1.664062 0.22656,-0.21875 0.22657,-0.214844 0.45703,-0.425781 0.91015,-0.828125 1.82032,-1.5625 0.11328,-0.08984 0.11328,-0.09375 0.23047,-0.183594 0.45312,-0.359375 0.91016,-0.699219 1.82031,-1.285156 0.10938,-0.07031 0.3164,-0.210938 0.42578,-0.269531 0.84766,-0.519531 0.10938,-0.06641 0.10546,-0.05859 0.21094,-0.125 0.42578,-0.238282 0.84766,-0.457031 0.10547,-0.05469 0.32031,-0.160156 0.42578,-0.207032 0.84766,-0.390625 0.10547,-0.04687 0.10937,-0.04687 0.21094,-0.08984 0.42578,-0.171876 0.84766,-0.320312 0.11718,-0.04297 0.11329,-0.03906 0.23046,-0.07813 0.46094,-0.152344 0.11328,-0.03516 0.11719,-0.03516 0.23047,-0.07031 0.46094,-0.128906 0.22656,-0.0625 0.23047,-0.05859 0.46094,-0.105469 0.11718,-0.02734 0.11328,-0.02344 0.23047,-0.05078 0.46094,-0.08594 0.11328,-0.02344 0.11719,-0.01953 0.23047,-0.03516 0.11328,-0.01953 0.11719,-0.01563 0.23047,-0.03516 0.11328,-0.01563 0.11718,-0.01172 0.23047,-0.02734 0.11328,-0.01563 0.11719,-0.01172 0.22656,-0.01953 0.11719,-0.01172 0.11328,-0.0078 0.11719,-0.01172 0.11328,-0.0078 0.11719,-0.0039 0.11328,-0.0078 0.11719,-0.0078 0.11328,-0.0039 0.11719,-0.0039 0.11328,-0.0039 0.11719,-0.0039 0.11328,-0.0039 h 0.11718 l 0.11329,-0.0039 h 0.45703 l 0.22656,0.0078 h 0.11328 l 0.10938,0.0039 0.11328,0.0039 0.11328,0.0078 0.11328,0.0039 0.56641,0.03906 0.22656,0.01953 0.22656,0.02344 0.22266,0.02344 0.11328,0.01562 0.11328,0.01172 0.45312,0.0625 0.22657,0.03516 0.45312,0.07812 0.10938,0.02344 0.11328,0.01953 0.22656,0.04687 0.45313,0.09766 0.22656,0.05469 0.22656,0.05859 0.44922,0.117187 0.11328,0.03125 0.11328,0.03516 0.22656,0.06641 0.45313,0.140625 0.90234,0.3125 0.21094,0.07813 0.21094,0.08203 0.42187,0.167969 0.84375,0.367187 0.21094,0.09375 0.63281,0.304688 0.84375,0.4375 0.10157,0.05859 0.3164,0.175782 0.42188,0.242187 0.84375,0.507813 1.6875,1.125 0.22656,0.164062 0.23047,0.167969 0.45703,0.339844 0.91406,0.710937 1.82813,1.542969 0.11328,0.101563 0.11719,0.105468 0.22656,0.207032 0.45703,0.421874 0.91406,0.871094 1.82813,1.867188 0.10937,0.113281 0.10547,0.117187 0.21484,0.230469 0.42579,0.464844 0.85156,0.957031 1.70703,2.019532 3.41406,4.417968 0.11719,0.15625 0.11328,0.160156 0.23438,0.320313 0.46093,0.644531 0.92578,1.316406 1.84766,2.742188 3.69922,5.871094 7.26562,12.882812 6.77344,13.324219 7.34766,15.414064 6.85937,14.83594 6.72657,14.51953 1.42968,2.98828 5.86328,12.24218 6.8086,13.27344 7.3789,12.89453 0.22657,0.36719 0.22656,0.36328 0.45312,0.72266 0.90625,1.42187 1.8086,2.75391 3.62109,5.10937 0.21094,0.28125 0.21484,0.27735 0.42188,0.55078 0.84375,1.08203 1.6875,2.0625 0.21094,0.25 0.21093,0.24609 0.42188,0.48829 0.84765,0.95312 1.6875,1.80078 0.11329,0.11719 0.11718,0.11719 0.22657,0.23437 0.46093,0.45313 0.91407,0.88281 1.83203,1.63672 0.11328,0.0977 0.11719,0.0977 0.22656,0.1875 0.45703,0.375 0.91797,0.71484 1.83203,1.30469 0.10547,0.0703 0.10937,0.0703 0.21094,0.14062 0.42969,0.26953 0.85547,0.51172 0.21093,0.125 0.21485,0.11719 0.42578,0.23437 0.85547,0.4375 0.10937,0.0547 0.10547,0.0508 0.21485,0.10157 0.42578,0.19531 0.85547,0.36328 0.10546,0.043 0.10938,0.0391 0.21484,0.082 0.42578,0.16016 0.85547,0.28515 0.10547,0.0312 0.10156,0.0352 0.21094,0.0625 0.41797,0.11719 0.21094,0.0547 0.21094,0.0508 0.41796,0.10156 0.21094,0.0469 0.20703,0.043 0.21094,0.0391 0.21094,0.043 0.10156,0.0156 0.10547,0.0195 0.21094,0.0352 0.41797,0.0625 0.10546,0.0156 0.10547,0.0117 0.20703,0.0273 0.21094,0.0234 0.21094,0.0195 0.10156,0.0117 0.52735,0.0391 0.10156,0.004 0.10547,0.008 0.3164,0.0117 0.10157,0.004 0.21093,0.008 h 0.21094 l 0.10547,0.004 h 0.10156 l 0.10547,-0.004 h 0.21094 l 0.10547,-0.004 0.10156,-0.004 h 0.10547 l 0.11328,-0.008 0.11719,-0.004 0.11328,-0.004 0.67969,-0.0469 0.11328,-0.0117 0.23047,-0.0234 0.22656,-0.0234 0.22656,-0.0273 0.22656,-0.0312 0.22657,-0.0352 0.11328,-0.0156 0.11718,-0.0195 0.45313,-0.0781 0.22656,-0.043 0.45703,-0.0977 0.11328,-0.0234 0.33985,-0.082 0.45312,-0.11328 0.11719,-0.0312 0.33984,-0.0937 0.45313,-0.13672 0.11328,-0.0391 0.11328,-0.0352 0.23047,-0.0742 0.45313,-0.15625 0.91015,-0.34765 0.10547,-0.0391 0.10547,-0.0469 0.21094,-0.0859 0.42578,-0.18359 0.84765,-0.39453 0.10547,-0.0508 0.10938,-0.0508 0.21094,-0.10937 0.42578,-0.21485 0.84765,-0.46484 0.10547,-0.0586 0.10547,-0.0625 0.21094,-0.1211 0.42578,-0.2539 0.84766,-0.53125 1.69921,-1.15625 0.11329,-0.0859 0.11718,-0.082 0.22657,-0.17188 0.46093,-0.34375 0.92188,-0.72265 1.83984,-1.55078 0.22656,-0.20313 0.23047,-0.20703 0.46094,-0.41797 0.92188,-0.86719 1.83984,-1.83203 0.10547,-0.10937 0.10937,-0.11328 0.21485,-0.22266 0.42578,-0.45313 0.85937,-0.92968 1.71875,-1.94141 3.4375,-4.19531 6.73438,-9.28906 7.30859,-11.32422 6.82031,-11.31641 7.39063,-12.58984 1.93359,-3.25 5.32422,-8.9375 6.76563,-10.78125 7.33984,-10.61328 0.10938,-0.14453 0.10546,-0.14454 0.21485,-0.28515 0.42578,-0.57031 0.85937,-1.125 1.71094,-2.1836 3.42578,-4.08203 0.10547,-0.11719 0.10547,-0.12109 0.21094,-0.23438 0.41797,-0.46484 0.83984,-0.91797 1.67969,-1.749998 0.10547,-0.109375 0.3164,-0.316406 0.41797,-0.414062 0.83985,-0.8125 1.67968,-1.539063 0.22657,-0.203125 0.22656,-0.195312 0.45703,-0.390626 0.91016,-0.757812 1.82421,-1.414062 0.11329,-0.08594 0.33984,-0.246094 0.45703,-0.324218 0.91016,-0.621094 1.82422,-1.136719 0.21093,-0.125 0.21094,-0.121094 0.42578,-0.238281 0.85156,-0.449219 0.21094,-0.109375 0.21485,-0.105468 0.42187,-0.207032 0.85156,-0.386718 0.21094,-0.09375 0.21484,-0.08984 0.42579,-0.175782 0.84765,-0.324218 0.10547,-0.03906 0.10938,-0.03906 0.21093,-0.07422 0.42578,-0.144531 0.84766,-0.261719 0.12109,-0.03125 0.11719,-0.03516 0.23828,-0.06641 0.47266,-0.121094 0.12109,-0.02734 0.11719,-0.03125 0.23828,-0.05469 0.47266,-0.101562 0.12109,-0.02344 0.11719,-0.02344 0.23828,-0.04687 0.11719,-0.01953 0.11719,-0.02344 0.23828,-0.03906 0.12109,-0.01953 0.11719,-0.01563 0.23828,-0.03516 0.47266,-0.0625 0.11718,-0.01563 0.1211,-0.01172 0.23828,-0.02734 0.23437,-0.02344 0.23828,-0.01953 0.11719,-0.0078 0.1211,-0.0078 0.23437,-0.01563 0.12109,-0.0078 0.11719,-0.0039 0.1211,-0.0078 0.23437,-0.0078 0.12109,-0.0039 0.11719,-0.0039 h 0.11719 l 0.12109,-0.0039 h 0.47266 l 0.12109,0.0039 h 0.11719 l 0.11719,0.0039 0.12109,0.0039 0.23438,0.0078 0.12109,0.0039"
         style="fill:none;stroke:#e19c23;stroke-width:1.60000002;stroke-linecap:square;stroke-linejoin:miter;stroke-miterlimit:3.25;stroke-opacity:1"
         inkscape:connector-curvature="0" />
      <path
         id="path5460"
         transform="translate(-66,-5)"
         d="m 73.199219,141.67969 h 2.757812 l 0.105469,-0.004 h 0.953125 l 0.105469,-0.004 h 0.53125 l 0.210937,-0.004 h 0.210938 l 0.214843,-0.004 H 78.5 l 0.210938,-0.004 h 0.210937 l 0.214844,-0.004 h 0.210937 l 0.210938,-0.004 0.425781,-0.008 h 0.230469 l 0.226562,-0.004 0.460938,-0.0117 h 0.117187 l 0.113281,-0.004 0.230469,-0.004 0.457031,-0.0117 H 81.9375 l 0.113281,-0.004 0.230469,-0.008 0.460938,-0.0117 0.113281,-0.004 0.117187,-0.004 0.226563,-0.008 0.460937,-0.0156 0.117188,-0.004 0.113281,-0.004 0.230469,-0.008 0.460937,-0.0195 0.226563,-0.008 0.230468,-0.0117 0.460938,-0.0195 0.113281,-0.008 0.117188,-0.004 0.230469,-0.0117 0.457031,-0.0273 0.921875,-0.0547 0.105468,-0.008 0.105469,-0.004 0.644531,-0.0469 0.859376,-0.0664 0.105468,-0.008 0.109375,-0.008 0.214844,-0.0195 0.429687,-0.0352 0.855469,-0.082 0.109375,-0.008 0.105469,-0.0117 0.214844,-0.0234 0.429687,-0.043 0.859375,-0.0977 1.714844,-0.21875 0.421875,-0.0625 0.421875,-0.0586 0.839844,-0.13281 0.105469,-0.0156 0.105468,-0.0195 0.210938,-0.0312 0.421875,-0.0742 0.839843,-0.14844 0.421876,-0.0781 0.421874,-0.082 0.839844,-0.17188 1.683594,-0.37109 0.22656,-0.0547 0.23047,-0.0547 0.45703,-0.11328 0.91016,-0.23437 1.82812,-0.51172 0.11329,-0.0312 0.11328,-0.0352 0.22656,-0.0664 0.45703,-0.14063 0.91406,-0.29297 1.82422,-0.625 0.10938,-0.0391 0.3164,-0.11719 0.42578,-0.15625 0.85547,-0.32812 1.70313,-0.69532 0.10547,-0.043 0.10547,-0.0469 0.21484,-0.0898 0.42578,-0.1875 0.85156,-0.37891 1.70313,-0.80859 0.11719,-0.0547 0.11328,-0.0586 0.23047,-0.11329 0.46484,-0.23046 0.92187,-0.47657 1.84766,-1.00781 3.69141,-2.21094 0.11328,-0.0742 0.11328,-0.0703 0.22656,-0.14453 0.45313,-0.29687 0.90625,-0.60157 1.8125,-1.25 3.625,-2.69531 6.76562,-5.6875 7.33594,-7.05078 6.84375,-7.25781 6.71484,-7.574221 7.28125,-8.484375 6.79688,-7.910156 7.36718,-8.257813 7.23047,-7.457031 0.42188,-0.40625 0.42187,-0.402344 0.84375,-0.800781 1.6875,-1.554688 3.3711,-2.921875 0.22656,-0.1875 0.23047,-0.1875 0.45703,-0.371094 0.91406,-0.726562 1.82813,-1.386719 0.11328,-0.08594 0.11719,-0.08203 0.22656,-0.167968 0.45703,-0.324219 0.91406,-0.640625 1.82813,-1.203125 0.10937,-0.06641 0.10547,-0.06641 0.21484,-0.132812 0.42579,-0.261719 0.85156,-0.507812 1.70703,-0.945313 0.10937,-0.05859 0.10547,-0.05469 0.21485,-0.109375 0.42578,-0.21875 0.85156,-0.414062 1.70703,-0.757813 0.11719,-0.05078 0.11328,-0.04687 0.23438,-0.09375 0.46093,-0.179688 0.92578,-0.34375 0.11329,-0.03906 0.11718,-0.03906 0.23047,-0.07813 0.46485,-0.152343 0.92187,-0.285157 0.11719,-0.03125 0.11328,-0.03125 0.23437,-0.06641 0.46094,-0.121094 0.11719,-0.03125 0.11328,-0.02734 0.23047,-0.05469 0.46484,-0.109375 0.11328,-0.02344 0.11719,-0.02734 0.23047,-0.04687 0.46094,-0.08984 0.11719,-0.02344 0.11718,-0.01953 0.23047,-0.04297 0.46094,-0.07422 0.11328,-0.01563 0.11328,-0.01953 0.33985,-0.04687 0.11718,-0.01172 0.22657,-0.03125 0.22656,-0.02344 0.22656,-0.02734 0.11328,-0.01172 0.11328,-0.0078 0.22657,-0.02344 0.11328,-0.0078 0.11328,-0.01172 0.45312,-0.03125 0.23047,-0.01172 0.11328,-0.0039 0.11328,-0.0078 0.45313,-0.01563 h 0.11328 l 0.11328,-0.0039 h 0.11328 l 0.11328,-0.0039 h 0.45313 l 0.11328,0.0039 h 0.11328 l 0.22656,0.0078 h 0.11719 l 0.22656,0.0078 0.11329,0.0078 0.22656,0.0078 0.67969,0.04687 0.22656,0.01953 0.11328,0.0078 0.33984,0.03516 0.45703,0.05078 0.10547,0.01563 0.10547,0.01172 0.21094,0.03125 0.42578,0.0625 0.10547,0.01563 0.10547,0.01953 0.21094,0.03516 0.52734,0.09766 0.10937,0.01953 0.21094,0.04297 0.42188,0.09375 0.84765,0.203124 0.21094,0.05469 0.21094,0.05859 0.42578,0.117187 0.84766,0.261719 0.42187,0.140625 0.42578,0.148437 0.84375,0.320313 0.11719,0.04297 0.11328,0.04687 0.23047,0.09375 0.45703,0.195312 0.92188,0.410157 0.22656,0.109374 0.23047,0.109376 0.46093,0.226562 0.91797,0.476562 0.11328,0.0625 0.11719,0.0625 0.22656,0.128907 0.46094,0.261719 0.91797,0.542968 1.83594,1.195313 0.10937,0.07422 0.10547,0.07422 0.21485,0.148438 0.42968,0.304687 0.85547,0.628907 1.71485,1.347656 0.10937,0.08984 0.10547,0.08984 0.21484,0.175781 0.42969,0.363282 0.85547,0.746094 1.71484,1.570312 0.21094,0.203125 0.21094,0.199219 0.41797,0.410156 0.84375,0.835938 1.67968,1.753906 3.36329,3.808594 0.45312,0.546874 0.45703,0.554688 0.91406,1.128906 1.82032,2.339844 3.64843,4.996094 6.8086,10.339844 7.3789,12.453124 7.24219,13.117185 6.75781,12.6875 7.32813,13.83594 1.62891,3 5.21093,9.60547 6.70313,11.71093 7.27734,11.60157 0.21094,0.32031 0.21094,0.3164 0.42578,0.625 0.84765,1.24219 1.69922,2.41406 3.39453,4.55469 0.11329,0.14453 0.11718,0.14844 0.22657,0.29297 0.46093,0.57812 0.92188,1.13672 1.83984,2.1836 0.22656,0.26562 0.23047,0.26172 0.46094,0.51953 0.92188,1.01172 1.83984,1.92578 0.10547,0.10938 0.10937,0.10937 0.21485,0.21094 0.42578,0.42578 0.85937,0.82422 1.71875,1.55859 0.10938,0.0937 0.10547,0.0937 0.21484,0.1836 0.42969,0.36328 0.85937,0.70703 1.71875,1.3125 0.10547,0.0742 0.10547,0.0781 0.20703,0.14844 0.42188,0.29688 0.84375,0.5664 0.10547,0.0703 0.10546,0.0664 0.21094,0.13672 0.41797,0.26172 0.84375,0.50781 0.10547,0.0586 0.10547,0.0625 0.63281,0.35157 0.83984,0.4414 0.21094,0.10938 0.63281,0.30469 0.83985,0.3789 0.11719,0.0469 0.11328,0.0508 0.22656,0.0937 0.45703,0.18359 0.11328,0.043 0.11719,0.0469 0.22656,0.0859 0.45703,0.16407 0.22657,0.0781 0.23046,0.0742 0.45704,0.14844 0.91406,0.26172 0.11328,0.0312 0.11328,0.0273 0.23047,0.0586 0.45703,0.10547 0.11328,0.0273 0.11328,0.0234 0.22657,0.0508 0.45703,0.0859 0.11718,0.0234 0.33985,0.0586 0.11328,0.0156 0.11719,0.0195 0.22656,0.0352 0.11328,0.0156 0.11719,0.0156 0.22656,0.0273 0.11328,0.0117 0.11719,0.0156 0.22656,0.0234 0.10547,0.0117 0.10938,0.008 0.10546,0.0117 0.21094,0.0156 0.10938,0.008 0.21093,0.0156 0.10938,0.004 0.10547,0.008 0.10547,0.004 0.10547,0.008 0.10937,0.004 0.21094,0.008 h 0.10937 l 0.10547,0.004 h 0.10547 l 0.10547,0.004 h 0.42578 l 0.10938,-0.004 h 0.10546 l 0.10547,-0.004 0.10938,-0.004 h 0.10547 l 0.10547,-0.004 0.10546,-0.008 0.10938,-0.004 0.10547,-0.004 0.10547,-0.008 0.10937,-0.004 0.31641,-0.0234 0.10937,-0.008 0.21094,-0.0195 0.10938,-0.0117 0.10546,-0.008 0.21094,-0.0234 0.42578,-0.0508 0.10938,-0.0156 0.10547,-0.0156 0.21484,-0.0273 0.42578,-0.0703 0.10547,-0.0156 0.10547,-0.0195 0.21484,-0.0391 0.42578,-0.0859 0.11719,-0.0234 0.11328,-0.0234 0.23047,-0.0508 0.46094,-0.10937 0.11719,-0.0273 0.11718,-0.0312 0.23047,-0.0586 0.46094,-0.12891 0.11719,-0.0352 0.11328,-0.0352 0.23047,-0.0664 0.46094,-0.14844 0.92578,-0.32031 0.11718,-0.043 0.11329,-0.043 0.23046,-0.0898 0.46094,-0.18359 0.92578,-0.39453 0.11719,-0.0547 0.11328,-0.0508 0.23047,-0.10547 0.46094,-0.22265 0.92578,-0.46485 0.11328,-0.0625 0.11328,-0.0586 0.22656,-0.1211 0.45313,-0.2539 0.90625,-0.52735 1.81641,-1.15234 0.11328,-0.0781 0.11328,-0.0742 0.22656,-0.15625 0.45313,-0.32032 0.90625,-0.65625 1.8164,-1.41406 0.21094,-0.17187 0.21094,-0.17578 0.42187,-0.35547 0.84766,-0.72657 1.6914,-1.53125 3.38282,-3.36328 0.11718,-0.12109 0.11329,-0.12109 0.23046,-0.2461 0.45704,-0.49219 0.91796,-1 1.83594,-2.08593 3.66797,-4.45703 6.85156,-9.20313 6.71875,-9.86719 7.28907,-11.2539 6.13281,-9.59375 0.66406,-1.03907 0.12109,-0.18359 0.11719,-0.18359 0.23828,-0.36719 0.47266,-0.73828 0.94922,-1.46485 1.89844,-2.91015 0.11718,-0.17969 0.1211,-0.18359 0.23828,-0.35938 0.47265,-0.72265 0.94922,-1.42969 0.11719,-0.17969 0.12109,-0.17969 0.23438,-0.35547 0.47656,-0.71093 0.11719,-0.17578 0.12109,-0.17579 0.23438,-0.35546 0.12109,-0.17579 0.23438,-0.35156 0.12109,-0.17578"
         style="fill:none;stroke:#8fb030;stroke-width:1.60000002;stroke-linecap:square;stroke-linejoin:miter;stroke-miterlimit:3.25;stroke-opacity:1"
         inkscape:connector-curvature="0" />
      <path
         id="path5462"
         transform="translate(-66,-5)"
         d="M 73.199219,141.67969 H 81.9375 l 0.113281,-0.004 h 2.300781 l 0.230469,-0.004 h 1.148438 l 0.230469,-0.004 h 0.917968 l 0.460938,-0.004 h 0.425781 l 0.429687,-0.004 h 0.214844 l 0.214844,-0.004 h 0.535156 l 0.109375,-0.004 h 0.214844 l 0.429687,-0.004 0.855469,-0.004 0.109375,-0.004 h 0.320313 l 0.429687,-0.004 0.109375,-0.004 h 0.320313 l 0.429687,-0.008 h 0.214844 l 0.214844,-0.004 0.429687,-0.004 0.855469,-0.0117 0.105469,-0.004 h 0.105468 l 0.210938,-0.004 0.421875,-0.004 0.839844,-0.0156 0.105469,-0.004 h 0.105468 l 0.632813,-0.0117 0.839843,-0.0195 h 0.105469 l 0.105469,-0.004 0.210938,-0.004 0.421874,-0.0117 0.839844,-0.0195 0.210938,-0.008 0.210937,-0.004 0.417969,-0.0117 0.84375,-0.0273 0.22656,-0.008 0.23047,-0.008 0.45703,-0.0156 0.91016,-0.0312 0.11328,-0.004 0.11719,-0.004 0.22656,-0.0117 1.37109,-0.0586 0.11329,-0.004 0.11328,-0.008 0.22656,-0.008 1.37109,-0.0703 1.82422,-0.10547 0.10938,-0.008 0.10547,-0.008 0.21093,-0.0117 0.42578,-0.0273 0.85547,-0.0625 0.10547,-0.008 0.10547,-0.004 0.21484,-0.0156 0.42579,-0.0352 0.85156,-0.0664 0.21094,-0.0156 0.21484,-0.0195 0.42578,-0.0352 0.85156,-0.0781 1.70313,-0.16407 0.11719,-0.0117 0.11328,-0.0156 0.23047,-0.0234 0.46484,-0.0508 0.92187,-0.10156 1.84766,-0.23047 0.11328,-0.0117 0.11719,-0.0156 0.69141,-0.0937 0.92187,-0.13282 1.84766,-0.28125 0.11328,-0.0195 0.11328,-0.0156 0.22656,-0.0391 0.45313,-0.0742 0.90625,-0.16016 1.8125,-0.33594 0.11328,-0.0195 0.33984,-0.0703 0.45313,-0.0898 0.90625,-0.1875 1.8125,-0.40234 0.10546,-0.0234 0.10547,-0.0273 0.21485,-0.0469 0.42187,-0.10156 0.84375,-0.20703 1.69141,-0.4375 0.10547,-0.0273 0.10547,-0.0312 0.21093,-0.0547 0.42578,-0.11719 0.84375,-0.23828 1.69141,-0.50391 0.11328,-0.0352 0.11719,-0.0352 0.22656,-0.0742 0.46094,-0.14453 0.91406,-0.29687 1.83594,-0.625 3.66797,-1.37891 0.21094,-0.0859 0.21484,-0.0859 0.42969,-0.17579 0.85547,-0.35546 1.71093,-0.74219 3.42188,-1.60547 0.21094,-0.10156 0.21093,-0.10547 0.41797,-0.20703 0.83985,-0.42969 1.67968,-0.88281 3.35547,-1.88281 7.28125,-4.6211 6.79688,-4.9375 7.36718,-5.97265 7.23047,-6.38672 6.7461,-6.292972 7.3125,-7.035157 6.82812,-6.574219 7.39844,-6.914062 7.26562,-6.332031 6.77344,-5.28125 0.11719,-0.08203 0.11328,-0.08203 0.23047,-0.167968 0.45703,-0.324219 0.92188,-0.644531 1.83593,-1.238282 0.11328,-0.07422 0.11719,-0.07422 0.22656,-0.148438 0.46094,-0.296875 0.91797,-0.574218 1.83594,-1.101563 0.10937,-0.05859 0.10547,-0.0625 0.21485,-0.125 0.42968,-0.242187 0.85547,-0.46875 1.71485,-0.894532 0.10937,-0.05078 0.10547,-0.05469 0.21484,-0.105469 0.42969,-0.207031 0.85547,-0.402344 1.71484,-0.75 0.42188,-0.171875 0.41797,-0.167969 0.84375,-0.320312 0.10156,-0.03906 0.10547,-0.03906 0.63281,-0.222657 0.83984,-0.285156 0.10547,-0.03516 0.10547,-0.03125 0.21094,-0.06641 0.41797,-0.132813 0.83984,-0.242187 0.10547,-0.03125 0.10547,-0.02734 0.21094,-0.05859 0.41797,-0.109375 0.84375,-0.203125 0.22656,-0.05469 0.22656,-0.05078 0.45703,-0.09375 0.22656,-0.04688 0.23047,-0.04687 0.45703,-0.08203 0.45313,-0.07813 0.45703,-0.07422 0.22656,-0.03125 0.23047,-0.03516 0.45313,-0.05859 0.11718,-0.01172 0.11329,-0.01563 0.22656,-0.02734 0.11328,-0.01172 0.11719,-0.01172 0.22656,-0.02344 0.11328,-0.0078 0.11328,-0.01172 0.23047,-0.01953 0.11328,-0.01172 0.33985,-0.02344 0.11718,-0.0078 0.22657,-0.01563 0.11328,-0.0039 0.11328,-0.0078 0.11328,-0.0039 0.23047,-0.01172 0.33984,-0.01172 0.11719,-0.0039 h 0.11328 l 0.22656,-0.0078 h 0.22266 l 0.10547,-0.0039 h 0.3164 l 0.10938,0.0039 h 0.21094 l 0.10547,0.0039 h 0.10937 l 0.10547,0.0039 h 0.10547 l 0.10547,0.0039 0.10937,0.0039 0.31641,0.01172 0.10547,0.0078 0.10937,0.0039 0.10547,0.0039 0.21094,0.01563 0.21484,0.01172 0.21094,0.01563 0.21484,0.01563 0.42578,0.03906 0.10547,0.01172 0.10547,0.0078 0.21485,0.02344 0.42578,0.05078 0.10547,0.01172 0.10546,0.01563 0.21094,0.02734 0.42578,0.0625 0.10938,0.01563 0.10547,0.01563 0.21093,0.03516 0.42579,0.07031 0.85156,0.164062 0.11719,0.02344 0.11328,0.02344 0.23047,0.05078 0.46093,0.105469 0.92188,0.234375 0.11719,0.02734 0.11328,0.03516 0.23047,0.0625 0.46093,0.132813 0.92578,0.289062 0.11329,0.03516 0.11718,0.03906 0.23047,0.07813 0.46094,0.164063 0.92187,0.34375 1.84375,0.773437 0.22657,0.101563 0.22656,0.105468 0.45312,0.214844 0.90625,0.445312 1.8086,0.980469 0.11328,0.0625 0.79297,0.464844 0.90625,0.558594 1.80859,1.195312 0.10547,0.07422 0.10547,0.07031 0.21484,0.148438 0.42188,0.300781 0.84375,0.617188 1.6875,1.300781 3.3789,2.878906 0.11329,0.105469 0.11718,0.105469 0.22657,0.207031 0.46093,0.425781 0.91407,0.867188 1.83203,1.8125 3.66406,3.921875 0.10547,0.121093 0.10937,0.117188 0.21094,0.242188 0.42969,0.488281 0.85547,0.992187 1.70703,2.039063 3.42187,4.3125 6.70313,9.261719 7.27734,11.058594 6.78906,11.00781 7.35938,12.36719 6.87109,11.63672 1.53907,2.55469 5.19531,8.6289 7.30859,11.54297 6.82031,9.90235 0.11719,0.16015 0.11328,0.16016 0.23047,0.3164 0.46094,0.625 0.92578,1.24219 1.84766,2.41406 3.69531,4.55079 0.11328,0.13281 0.11328,0.13672 0.22656,0.26172 0.45313,0.52734 0.90625,1.03125 1.81641,1.98437 0.22656,0.24219 0.67969,0.71485 0.90625,0.92578 1.8164,1.77343 0.10547,0.0977 0.10547,0.10156 0.21094,0.19532 0.42187,0.39453 0.84766,0.76172 1.6914,1.45312 0.21094,0.17188 0.21094,0.17578 0.42578,0.33984 0.84375,0.66016 1.69141,1.24218 0.11718,0.082 0.11329,0.082 0.23046,0.15625 0.45704,0.3125 0.91796,0.59765 0.11329,0.0703 0.11718,0.0742 0.22657,0.14063 0.46093,0.28125 0.91797,0.53125 0.11328,0.0664 0.11328,0.0625 0.23047,0.1289 0.46094,0.2461 0.91406,0.46875 1.83594,0.83593 0.10938,0.043 0.10546,0.0469 0.21485,0.0859 0.42578,0.16797 0.85937,0.31641 0.10547,0.0391 0.10547,0.0352 0.21485,0.0742 0.42968,0.14062 0.85547,0.25781 0.10938,0.0312 0.10547,0.0273 0.21484,0.0586 0.42578,0.10938 0.10938,0.0273 0.10546,0.0273 0.21485,0.0508 0.42969,0.0937 0.10546,0.0234 0.10938,0.0234 0.21094,0.043 0.42968,0.0781 0.10547,0.0195 0.10938,0.0195 0.21484,0.0352 0.42578,0.0664 0.21094,0.0312 0.21094,0.0273 0.10547,0.0117 0.10156,0.0117 0.21094,0.0273 0.10547,0.0117 0.10546,0.008 0.21094,0.0234 0.10547,0.008 0.10156,0.0117 0.52735,0.0391 0.10547,0.004 0.10156,0.008 0.10547,0.004 0.10547,0.008 0.52734,0.0195 h 0.10156 l 0.10547,0.004 h 0.10547 l 0.10547,0.004 h 0.52344 l 0.10546,-0.004 h 0.10547 l 0.21094,-0.008 h 0.10547 l 0.10547,-0.004 0.10156,-0.004 0.10547,-0.008 0.10547,-0.004 0.21094,-0.0117 0.10546,-0.004 0.10547,-0.008 0.20703,-0.0156 0.21094,-0.0156 0.21094,-0.0195 0.10547,-0.008 0.10547,-0.0117 0.20703,-0.0234 0.42187,-0.0469 0.45313,-0.0625 0.45703,-0.0703 0.11328,-0.0195 0.11328,-0.0156 0.23047,-0.043 0.45313,-0.0859 0.11328,-0.0234 0.11718,-0.0234 0.22657,-0.0469 0.45312,-0.10156 0.91406,-0.23047 0.22657,-0.0625 0.22656,-0.0664 0.45703,-0.13281 0.91016,-0.29687 0.22656,-0.0781 0.23047,-0.0781 0.45312,-0.16797 0.91407,-0.35938 0.10546,-0.043 0.10547,-0.0469 0.21094,-0.0898 0.42578,-0.18359 0.85156,-0.39062 1.69922,-0.86329 0.21094,-0.11718 0.21484,-0.11719 0.42579,-0.23828 0.84765,-0.4961 1.69922,-1.07421 0.12109,-0.0781 0.11719,-0.082 0.23828,-0.16016 0.47266,-0.32422 0.94922,-0.67578 1.89844,-1.4414 0.11718,-0.0937 0.1211,-0.0937 0.23828,-0.19141 0.47265,-0.38672 0.94922,-0.79687 0.11719,-0.10157 0.12109,-0.10156 0.23438,-0.20312 0.47656,-0.41797 0.11719,-0.10547 0.12109,-0.10547 0.23438,-0.21094 0.12109,-0.10547 0.11719,-0.10937 0.11719,-0.10547 0.12109,-0.10937"
         style="fill:none;stroke:#eb6133;stroke-width:1.60000002;stroke-linecap:square;stroke-linejoin:miter;stroke-miterlimit:3.25;stroke-opacity:1"
         inkscape:connector-curvature="0" />
    </g>
    <g
       id="surface1"
       transform="matrix(0.14592498,0,0,0.14592499,8.4140552,110.92575)">
      <path
         id="path5502"
         transform="translate(-66,-5)"
         d="m 73.199219,214.14453 v 2.22266 H 418.80078 v -2.22266 l -0.12109,-0.0156 -0.11719,-0.0117 -0.11719,-0.0156 -0.12109,-0.0156 -0.23438,-0.0273 -0.12109,-0.0117 -0.11719,-0.0156 -0.47656,-0.0586 -0.23438,-0.0312 -0.12109,-0.0117 -0.11719,-0.0156 -0.94922,-0.125 -0.47265,-0.0625 -0.23828,-0.0312 -0.1211,-0.0156 -0.11718,-0.0156 -1.89844,-0.27344 -0.94922,-0.14453 -0.47266,-0.0781 -0.23828,-0.0352 -0.11719,-0.0195 -0.12109,-0.0195 -1.69922,-0.28906 -0.84765,-0.15235 -0.42579,-0.0781 -0.21484,-0.0391 -0.21094,-0.0391 -1.69922,-0.33203 -0.85156,-0.17578 -0.42578,-0.0898 -0.42187,-0.0937 -1.82422,-0.41016 -0.91016,-0.21875 -0.45703,-0.11328 -0.22656,-0.0547 -0.11328,-0.0312 -0.11329,-0.0273 -1.82421,-0.47656 -0.91016,-0.25391 -0.45703,-0.12891 -0.22656,-0.0664 -0.11329,-0.0312 -0.11328,-0.0352 -1.67968,-0.50781 -0.83985,-0.26563 -0.41797,-0.13281 -0.42187,-0.14062 -1.67969,-0.57422 -0.83984,-0.30078 -0.41797,-0.15625 -0.42188,-0.15625 -1.71093,-0.66407 -0.85938,-0.34765 -0.42578,-0.17969 -0.21484,-0.0898 -0.10547,-0.0469 -0.10938,-0.043 -1.71094,-0.7539 -0.85937,-0.39063 -0.42578,-0.20312 -0.21485,-0.10157 -0.10546,-0.0508 -0.10938,-0.0508 -1.83594,-0.90625 -0.91406,-0.47656 -0.46094,-0.24219 -0.23047,-0.125 -0.22656,-0.125 -1.83594,-1.02344 -0.91796,-0.53515 -0.45704,-0.27735 -0.23046,-0.13672 -0.11329,-0.0703 -0.11718,-0.0703 -3.38282,-2.17578 -1.6914,-1.17969 -0.84766,-0.60937 -0.73828,-0.54688 -0.10547,-0.082 -3.6289,-2.86328 -1.81641,-1.54688 -0.90625,-0.80078 -0.45313,-0.41015 -0.22656,-0.20704 -0.11328,-0.10156 -0.11328,-0.10547 -3.69531,-3.55468 -1.84766,-1.90625 -0.92578,-0.98438 -0.46094,-0.50391 -0.23047,-0.25 -0.11328,-0.1289 -0.11719,-0.125 -6.82031,-8.14063 -7.30859,-10.10156 -6.73438,-10.56641 -6.87109,-11.9414 -7.35938,-13.92969 -6.78906,-13.66015 -7.27734,-15.179692 -6.70313,-14.117188 -6.83984,-14.105469 -7.32813,-14.28125 -6.75781,-11.929687 -3.62109,-5.753906 -1.8086,-2.679688 -0.90625,-1.289062 -0.45312,-0.628907 -0.33984,-0.46875 -0.11329,-0.152343 -3.6875,-4.714844 -1.84765,-2.109375 -0.92188,-0.992188 -0.46093,-0.476562 -0.23047,-0.234375 -0.11328,-0.117188 -0.11719,-0.117187 -1.70313,-1.628907 -0.84765,-0.757812 -0.42578,-0.363281 -0.21485,-0.179688 -0.10547,-0.08594 -0.10547,-0.08984 -1.70312,-1.3125 -0.85156,-0.597656 -0.42578,-0.28125 -0.21094,-0.136719 -0.10547,-0.07031 -0.10938,-0.06641 -0.91015,-0.546875 -0.45703,-0.257812 -0.22657,-0.121094 -0.11328,-0.0625 -0.11718,-0.05859 -0.91016,-0.453125 -0.45703,-0.207031 -0.22656,-0.101563 -0.11329,-0.04687 -0.11718,-0.04688 -0.91016,-0.355468 -0.45703,-0.160156 -0.22656,-0.07422 -0.22657,-0.07031 -0.45703,-0.132812 -0.23047,-0.0625 -0.11328,-0.03125 -0.11328,-0.02734 -0.45703,-0.109375 -0.22656,-0.05078 -0.22656,-0.04687 -0.42188,-0.07813 -0.21094,-0.03516 -0.21093,-0.03125 -0.20704,-0.03125 -0.21093,-0.02344 -0.21094,-0.02734 -0.10547,-0.01172 -0.10547,-0.0078 -0.21094,-0.01953 -0.10156,-0.0078 -0.3164,-0.02344 -0.10547,-0.0039 -0.10547,-0.0078 -0.31641,-0.01172 h -0.10156 l -0.10547,-0.0039 h -0.42187 l -0.10547,0.0039 h -0.10547 l -0.21094,0.0078 -0.10156,0.0039 -0.21094,0.0078 -0.63281,0.04687 -0.10547,0.01172 -0.10156,0.01172 -0.31641,0.03516 -0.10547,0.01563 -0.21094,0.02734 -0.21093,0.03125 -0.20703,0.03516 -0.10547,0.01953 -0.10547,0.01563 -0.21094,0.03906 -0.10547,0.02344 -0.10547,0.01953 -0.42968,0.09375 -0.21094,0.05469 -0.10938,0.02344 -0.10547,0.02734 -0.42968,0.117187 -0.21485,0.0625 -0.10547,0.03125 -0.10937,0.03516 -0.42969,0.136719 -0.21094,0.07422 -0.10937,0.03906 -0.10547,0.03516 -0.42969,0.160156 -0.21484,0.08594 -0.10547,0.04297 -0.10937,0.04297 -0.85547,0.375 -0.42969,0.203125 -0.21484,0.105468 -0.10547,0.05469 -0.10938,0.05469 -0.85547,0.460937 -0.42968,0.246094 -0.21485,0.128906 -0.10547,0.0625 -0.10937,0.06641 -1.83594,1.21875 -0.91797,0.683594 -0.46094,0.359375 -0.22656,0.183594 -0.11719,0.08984 -0.11328,0.09375 -0.91797,0.777343 -0.46093,0.402344 -0.23047,0.207031 -0.22656,0.210938 -0.92188,0.867187 -0.45703,0.449219 -0.46094,0.460938 -1.6914,1.796874 -0.84766,0.953126 -0.42578,0.488281 -0.42188,0.5 -1.69531,2.082031 -0.84375,1.089844 L 222,32.77402 l -0.21094,0.28125 -0.10547,0.144531 -0.10547,0.140625 -1.8164,2.519531 -0.91016,1.3125 -0.45312,0.671875 -0.22657,0.339844 -0.11328,0.167968 -0.11328,0.171876 -1.8164,2.796874 -0.90625,1.445313 -0.45704,0.734375 -0.22656,0.371094 -0.11328,0.1875 -0.11328,0.183594 -7.39844,13.058593 -6.82812,13.324219 -7.3125,15.085938 -6.7461,14.203124 -7.23047,15.070316 -7.36718,14.76562 -6.79688,12.78516 -7.28125,12.5664 -6.71484,10.40625 -6.84375,9.38281 -7.33594,8.65235 -3.38281,3.51953 -1.69141,1.65234 -0.84375,0.79688 -0.42187,0.39453 -0.21485,0.19531 -0.10547,0.0977 -0.10546,0.0937 -3.625,3.16015 -1.8125,1.46485 -0.90625,0.70312 -0.90625,0.6875 -3.69141,2.61328 -1.84766,1.19922 -0.92187,0.57422 -0.46484,0.28125 -0.23047,0.14063 -0.11328,0.0703 -0.11719,0.0664 -3.40625,1.92578 -1.70313,0.88672 -0.85547,0.42187 -0.42578,0.20703 -0.21093,0.10156 -0.10547,0.0547 -0.10938,0.0508 -1.82422,0.83985 -0.91406,0.40234 -0.45703,0.19531 -0.22656,0.0977 -0.11328,0.0469 -0.11329,0.0508 -1.82812,0.73828 -0.91016,0.35156 -0.45703,0.17187 -0.23047,0.0859 -0.22656,0.0859 -1.683594,0.59766 -0.839844,0.28515 -0.632812,0.21094 -0.105469,0.0312 -0.105469,0.0352 -1.683593,0.52734 -0.839844,0.25391 -0.421875,0.12109 -0.210938,0.0625 -0.105468,0.0273 -0.105469,0.0312 -1.714844,0.47266 -0.859375,0.22266 -0.644531,0.16406 -0.105469,0.0273 -0.109375,0.0273 -1.714843,0.41015 -0.859376,0.19531 -0.644531,0.14063 -0.210937,0.0469 -1.839844,0.38282 -0.917969,0.17968 -0.691406,0.12891 -0.113281,0.0234 -0.117188,0.0195 -1.839844,0.32812 -0.917968,0.15235 -0.460938,0.0742 -0.226562,0.0391 -0.117188,0.0156 -0.113281,0.0195 -1.695313,0.25781 -0.847656,0.12109 -0.425781,0.0586 -0.210937,0.0273 -0.210938,0.0312 -1.699219,0.21875 -0.847656,0.10547 -0.421875,0.0508 -0.214844,0.0234 -0.105468,0.0117 z m 0,0"
         style="fill:#5c7fb3;fill-opacity:0.2;fill-rule:nonzero;stroke:#5c7fb3;stroke-width:1;stroke-linecap:square;stroke-linejoin:miter;stroke-miterlimit:3.23930693;stroke-opacity:0.2"
         inkscape:connector-curvature="0" />
      <path
         id="path5504"
         transform="translate(-66,-5)"
         d="m 73.199219,214.14453 0.105469,-0.0156 0.105468,-0.0117 0.214844,-0.0234 0.421875,-0.0508 0.847656,-0.10547 1.699219,-0.21875 0.210938,-0.0312 0.210937,-0.0273 0.425781,-0.0586 0.847656,-0.12109 1.695313,-0.25781 0.113281,-0.0195 0.117188,-0.0156 0.226562,-0.0391 0.460938,-0.0742 0.917968,-0.15235 1.839844,-0.32812 0.117188,-0.0195 0.113281,-0.0234 0.691406,-0.12891 0.917969,-0.17968 1.839844,-0.38282 0.210937,-0.0469 0.644531,-0.14063 0.859376,-0.19531 1.714843,-0.41015 0.109375,-0.0273 0.105469,-0.0273 0.644531,-0.16406 0.859375,-0.22266 1.714844,-0.47266 0.105469,-0.0312 0.105468,-0.0273 0.210938,-0.0625 0.421875,-0.12109 0.839844,-0.25391 1.683593,-0.52734 0.105469,-0.0352 0.105469,-0.0312 0.632812,-0.21094 0.839844,-0.28515 1.683594,-0.59766 0.22656,-0.0859 0.23047,-0.0859 0.45703,-0.17187 0.91016,-0.35156 1.82812,-0.73828 0.11329,-0.0508 0.11328,-0.0469 0.22656,-0.0977 0.45703,-0.19531 0.91406,-0.40234 1.82422,-0.83985 0.10938,-0.0508 0.10547,-0.0547 0.21093,-0.10156 0.42578,-0.20703 0.85547,-0.42187 1.70313,-0.88672 3.40625,-1.92578 0.11719,-0.0664 0.11328,-0.0703 0.23047,-0.14063 0.46484,-0.28125 0.92187,-0.57422 1.84766,-1.19922 3.69141,-2.61328 0.90625,-0.6875 0.90625,-0.70312 1.8125,-1.46485 3.625,-3.16015 0.10546,-0.0937 0.10547,-0.0977 0.21485,-0.19531 0.42187,-0.39453 0.84375,-0.79688 1.69141,-1.65234 3.38281,-3.51953 7.33594,-8.65235 6.84375,-9.38281 6.71484,-10.40625 7.28125,-12.5664 6.79688,-12.78516 7.36718,-14.76562 7.23047,-15.070318 6.7461,-14.203124 7.3125,-15.085938 6.82812,-13.324219 7.39844,-13.058593 0.11328,-0.183594 0.11328,-0.1875 0.22656,-0.371094 0.45704,-0.734375 0.90625,-1.445313 1.8164,-2.796874 0.11328,-0.171876 0.11328,-0.167968 0.22657,-0.339844 0.45312,-0.671875 0.91016,-1.3125 1.8164,-2.519531 0.10547,-0.140625 0.10547,-0.144531 0.21094,-0.28125 0.42578,-0.558594 0.84375,-1.089844 1.69531,-2.082031 0.42188,-0.5 0.42578,-0.488281 0.84766,-0.953126 1.6914,-1.796874 0.46094,-0.460938 0.45703,-0.449219 0.92188,-0.867187 0.22656,-0.210938 0.23047,-0.207031 0.46093,-0.402344 0.91797,-0.777343 0.11328,-0.09375 0.11719,-0.08984 0.22656,-0.183594 0.46094,-0.359375 0.91797,-0.683594 1.83594,-1.21875 0.10937,-0.06641 0.10547,-0.0625 0.21485,-0.128906 0.42968,-0.246094 0.85547,-0.460937 0.10938,-0.05469 0.10547,-0.05469 0.21484,-0.105468 0.42969,-0.203125 0.85547,-0.375 0.10937,-0.04297 0.10547,-0.04297 0.21484,-0.08594 0.42969,-0.160156 0.10547,-0.03516 0.10937,-0.03906 0.21094,-0.07422 0.42969,-0.136719 0.10937,-0.03516 0.10547,-0.03125 0.21485,-0.0625 0.42968,-0.117187 0.10547,-0.02734 0.10938,-0.02344 0.21094,-0.05469 0.42968,-0.09375 0.10547,-0.01953 0.10547,-0.02344 0.21094,-0.03906 0.10547,-0.01563 0.10547,-0.01953 0.20703,-0.03516 0.21093,-0.03125 0.21094,-0.02734 0.10547,-0.01563 0.31641,-0.03516 0.10156,-0.01172 0.10547,-0.01172 0.63281,-0.04687 0.21094,-0.0078 0.10156,-0.0039 0.21094,-0.0078 h 0.10547 l 0.10547,-0.0039 h 0.42187 l 0.10547,0.0039 h 0.10156 l 0.31641,0.01172 0.10547,0.0078 0.10547,0.0039 0.3164,0.02344 0.10156,0.0078 0.21094,0.01953 0.10547,0.0078 0.10547,0.01172 0.21094,0.02734 0.21093,0.02344 0.20704,0.03125 0.21093,0.03125 0.21094,0.03516 0.42188,0.07813 0.22656,0.04687 0.22656,0.05078 0.45703,0.109375 0.11328,0.02734 0.11328,0.03125 0.23047,0.0625 0.45703,0.132812 0.22657,0.07031 0.22656,0.07422 0.45703,0.160156 0.91016,0.355468 0.11718,0.04688 0.11329,0.04687 0.22656,0.101563 0.45703,0.207031 0.91016,0.453125 0.11718,0.05859 0.11328,0.0625 0.22657,0.121094 0.45703,0.257812 0.91015,0.546875 0.10938,0.06641 0.10547,0.07031 0.21094,0.136719 0.42578,0.28125 0.85156,0.597656 1.70312,1.3125 0.10547,0.08984 0.10547,0.08594 0.21485,0.179688 0.42578,0.363281 0.84765,0.757812 1.70313,1.628907 0.11719,0.117187 0.11328,0.117188 0.23047,0.234375 0.46093,0.476562 0.92188,0.992188 1.84765,2.109375 3.6875,4.714844 0.11329,0.152343 0.33984,0.46875 0.45312,0.628907 0.90625,1.289062 1.8086,2.679688 3.62109,5.753906 6.75781,11.929687 7.32813,14.28125 6.83984,14.105469 6.70313,14.117188 7.27734,15.179694 6.78906,13.66015 7.35938,13.92969 6.87109,11.9414 6.73438,10.56641 7.30859,10.10156 6.82031,8.14063 0.11719,0.125 0.11328,0.1289 0.23047,0.25 0.46094,0.50391 0.92578,0.98438 1.84766,1.90625 3.69531,3.55468 0.11328,0.10547 0.11328,0.10156 0.22656,0.20704 0.45313,0.41015 0.90625,0.80078 1.81641,1.54688 3.6289,2.86328 0.10547,0.082 0.73828,0.54688 0.84766,0.60937 1.6914,1.17969 3.38282,2.17578 0.11718,0.0703 0.11329,0.0703 0.23046,0.13672 0.45704,0.27735 0.91796,0.53515 1.83594,1.02344 0.22656,0.125 0.23047,0.125 0.46094,0.24219 0.91406,0.47656 1.83594,0.90625 0.10938,0.0508 0.10546,0.0508 0.21485,0.10157 0.42578,0.20312 0.85937,0.39063 1.71094,0.7539 0.10938,0.043 0.10547,0.0469 0.21484,0.0898 0.42578,0.17969 0.85938,0.34765 1.71093,0.66407 0.42188,0.15625 0.41797,0.15625 0.83984,0.30078 1.67969,0.57422 0.42187,0.14062 0.41797,0.13281 0.83985,0.26563 1.67968,0.50781 0.11328,0.0352 0.11329,0.0312 0.22656,0.0664 0.45703,0.12891 0.91016,0.25391 1.82421,0.47656 0.11329,0.0273 0.11328,0.0312 0.22656,0.0547 0.45703,0.11328 0.91016,0.21875 1.82422,0.41016 0.42187,0.0937 0.42578,0.0898 0.85156,0.17578 1.69922,0.33203 0.21094,0.0391 0.21484,0.0391 0.42579,0.0781 0.84765,0.15235 1.69922,0.28906 0.12109,0.0195 0.11719,0.0195 0.23828,0.0352 0.47266,0.0781 0.94922,0.14453 1.89844,0.27344 0.11718,0.0156 0.1211,0.0156 0.23828,0.0312 0.47265,0.0625 0.94922,0.125 0.11719,0.0156 0.12109,0.0117 0.23438,0.0312 0.47656,0.0586 0.11719,0.0156 0.12109,0.0117 0.23438,0.0273 0.12109,0.0156 0.11719,0.0156 0.11719,0.0117 0.12109,0.0156"
         style="fill:none;stroke:#5c7fb3;stroke-width:1.60000002;stroke-linecap:square;stroke-linejoin:miter;stroke-miterlimit:3.25;stroke-opacity:1"
         inkscape:connector-curvature="0" />
    </g>
    <path
       style="fill:none;stroke:#023047;stroke-width:0.48249999;stroke-linecap:butt;stroke-linejoin:miter;stroke-miterlimit:4;stroke-dasharray:none;stroke-opacity:1;marker-end:url(#Arrow2Mend-3)"
       d="M 50.554613,127.14211 H 66.429624"
       id="path1711-7"
       inkscape:connector-curvature="0" />
    <g
       id="g2646"
       transform="matrix(0.50000001,0,0,0.50000001,-42.049546,75.054148)">
      <circle
         r="27.29405"
         cy="104.16666"
         cx="264.58334"
         id="path1403"
         style="opacity:1;fill:url(#linearGradient4374);fill-opacity:1;fill-rule:nonzero;stroke:none;stroke-width:0.23734415;stroke-linejoin:round;stroke-miterlimit:4;stroke-dasharray:none;stroke-opacity:1;paint-order:normal" />
      <path
         inkscape:connector-curvature="0"
         id="path1422"
         d="m 229.43161,86.3073 h 71.43763"
         style="fill:#ffb703;fill-opacity:1;stroke:#000000;stroke-width:5.94749975;stroke-linecap:butt;stroke-linejoin:miter;stroke-miterlimit:4;stroke-dasharray:none;stroke-opacity:1" />
      <path
         inkscape:connector-curvature="0"
         id="path1422-6"
         d="m 229.43161,122.02605 h 71.43763"
         style="fill:#ffb703;fill-opacity:1;stroke:#000000;stroke-width:5.94749975;stroke-linecap:butt;stroke-linejoin:miter;stroke-miterlimit:4;stroke-dasharray:none;stroke-opacity:1" />
      <path
         inkscape:connector-curvature="0"
         id="path1460"
         d="M 280.45831,92.260426 V 116.07292"
         style="fill:none;stroke:#000000;stroke-width:0.54750001;stroke-linecap:butt;stroke-linejoin:miter;stroke-miterlimit:4;stroke-dasharray:none;stroke-opacity:1;marker-start:url(#Arrow1Mstart);marker-end:url(#Arrow1Mend)" />
      <path
         inkscape:connector-curvature="0"
         id="path1422-91"
         d="m 229.43161,86.307298 h 71.43763"
         style="fill:#023047;fill-opacity:1;stroke:#023047;stroke-width:5.94749975;stroke-linecap:butt;stroke-linejoin:miter;stroke-miterlimit:4;stroke-dasharray:none;stroke-opacity:1" />
      <path
         inkscape:connector-curvature="0"
         id="path1422-6-9"
         d="m 229.43161,122.02605 h 71.43763"
         style="fill:#023047;fill-opacity:1;stroke:#023047;stroke-width:5.94749975;stroke-linecap:butt;stroke-linejoin:miter;stroke-miterlimit:4;stroke-dasharray:none;stroke-opacity:1" />
      <path
         inkscape:connector-curvature="0"
         id="path1460-6"
         d="M 280.45831,92.260425 V 116.07292"
         style="fill:none;stroke:#000000;stroke-width:0.54750001;stroke-linecap:butt;stroke-linejoin:miter;stroke-miterlimit:4;stroke-dasharray:none;stroke-opacity:1;marker-start:url(#Arrow1Mstart-1);marker-end:url(#Arrow1Mend-4)" />
      <text
         id="text1946-9"
         y="106.05717"
         x="270.78177"
         style="font-style:normal;font-variant:normal;font-weight:normal;font-stretch:normal;font-size:7.55537462px;font-family:serif;-inkscape-font-specification:serif;letter-spacing:0px;word-spacing:0px;fill:#000000;fill-opacity:1;stroke:none;stroke-width:0.10118805"
         xml:space="preserve"><tspan
           dy="0.057366468"
           style="stroke-width:0.10118805"
           y="106.05717"
           x="270.78177"
           id="tspan1944-33"
           sodipodi:role="line"></tspan></text>
    </g>
    <path
       style="fill:none;stroke:#023047;stroke-width:0.48249999;stroke-linecap:butt;stroke-linejoin:miter;stroke-miterlimit:4;stroke-dasharray:none;stroke-opacity:1;marker-end:url(#Arrow2Mend-3-5)"
       d="m 114.05461,127.14211 h 15.87501"
       id="path1711-7-5"
       inkscape:connector-curvature="0" />
    <text
       xml:space="preserve"
       style="font-style:normal;font-variant:normal;font-weight:normal;font-stretch:normal;font-size:7.82061958px;line-height:1.25;font-family:serif;-inkscape-font-specification:serif;letter-spacing:0px;word-spacing:0px;fill:#000000;fill-opacity:1;stroke:none;stroke-width:0.10474043"
       x="164.74281"
       y="101.21725"
       id="text2438"><tspan
         sodipodi:role="line"
         id="tspan2436"
         x="164.74281"
         y="101.21725"
         style="fill:#023047;stroke:none;stroke-width:0.10474043">v(t)</tspan></text>
    <text
       xml:space="preserve"
       style="font-style:normal;font-variant:normal;font-weight:normal;font-stretch:normal;font-size:8.07415009px;line-height:1.25;font-family:serif;-inkscape-font-specification:serif;letter-spacing:0px;word-spacing:0px;fill:#000000;fill-opacity:1;stroke:none;stroke-width:0.10813593"
       x="28.223343"
       y="101.56653"
       id="text2442"><tspan
         sodipodi:role="line"
         x="28.223343"
         y="101.56653"
         style="fill:#023047;stroke-width:0.10813593"
         id="tspan2444">u(t)</tspan></text>
  </g>
</svg>
